<?xml version="1.0" encoding="UTF-8"?>
<svg xmlns="http://www.w3.org/2000/svg" width="1290" height="544" viewBox="0 0 1290 544">
<defs>
  <marker id="arrow" markerWidth="10" markerHeight="7" refX="9" refY="3.5" orient="auto">
    <polygon points="0 0, 10 3.5, 0 7" fill="#334155"/>
  </marker>
  <filter id="shadow" x="-5%" y="-5%" width="110%" height="110%">
    <feDropShadow dx="1" dy="2" stdDeviation="3" flood-color="#00000020"/>
  </filter>
</defs>
<rect width="1290" height="544" fill="#F8FAFC"/>
<path d="M 196.0,232.0 H 216.0 V 157.0 H 236.0" fill="none" stroke="#1565C0" stroke-width="1.5"/>
<rect x="197.0" y="188.5" width="38" height="12" rx="2" fill="#E3EFF9" opacity="0.85"/>
<text x="216.0" y="198.5" font-family="'Segoe UI', 'Helvetica Neue', Arial, sans-serif" font-size="9" fill="#1565C0" font-style="italic" text-anchor="middle">Peering</text>
<line x1="483.0" y1="294.0" x2="483.0" y2="314.0" stroke="#64748B" stroke-width="1.5"/>
<rect x="458.0" y="298.0" width="50" height="12" rx="2" fill="#F8FAFC" opacity="0.85"/>
<text x="483.0" y="308.0" font-family="'Segoe UI', 'Helvetica Neue', Arial, sans-serif" font-size="9" fill="#64748B" font-style="italic" text-anchor="middle">DNS Link</text>
<rect x="20.0" y="20.0" width="176.0" height="424.0" rx="8" fill="#E3EFF9" stroke="#1565C0" stroke-width="1.5"/>
<text x="32.0" y="38.0" font-family="'Segoe UI', 'Helvetica Neue', Arial, sans-serif" font-size="11" fill="#1565C0" font-weight="600">VNet: vnet-hub-jpe-${suffix}</text>
<rect x="30.0" y="50.0" width="156.0" height="120.0" rx="6" fill="#F0F6FF" stroke="#0078D4" stroke-width="1" stroke-dasharray="5,3"/>
<text x="38.0" y="64.0" font-family="'Segoe UI', 'Helvetica Neue', Arial, sans-serif" font-size="10" fill="#0078D4">Subnet:AzureFirewallSubnet</text>
<text x="38.0" y="76.0" font-family="'Segoe UI', 'Helvetica Neue', Arial, sans-serif" font-size="9" fill="#0078D4">10.0.1.0/26</text>
<rect x="40.0" y="83.0" width="140.0" height="82.0" rx="8" fill="#00000018"/>
<rect x="38.0" y="80.0" width="140.0" height="82.0" rx="8" fill="#FFFFFF" stroke="#CBD5E1" stroke-width="1"/>
<svg x="96.0" y="86.0" width="24" height="24" viewBox="0 0 18 18" preserveAspectRatio="xMidYMid meet"><defs><linearGradient id="ic-azFirewall-b012de7b-7a0e-4618-9fec-703622e3e8c3" x1="9" y1="14.14" x2="9" y2="1.38" gradientUnits="userSpaceOnUse"><stop offset="0" stop-color="#0078d4" /><stop offset="0.82" stop-color="#5ea0ef" /></linearGradient></defs><title>Icon-networking-84</title><path d="M18,10.14a4.06,4.06,0,0,0-3.51-3.89A5.1,5.1,0,0,0,9.24,1.38a5.23,5.23,0,0,0-5,3.41A4.82,4.82,0,0,0,0,9.43a4.9,4.9,0,0,0,5.07,4.71l.44,0h8.21a1.46,1.46,0,0,0,.22,0A4.1,4.1,0,0,0,18,10.14Z" fill="url(#ic-azFirewall-b012de7b-7a0e-4618-9fec-703622e3e8c3)" /><path d="M14.29,11.19a.42.42,0,0,0-.42-.41H4.13a.42.42,0,0,0-.42.41v5a.42.42,0,0,0,.42.41h9.74a.42.42,0,0,0,.42-.41v-5Z" fill="#821010" /><rect x="4.3" y="11.36" width="2.87" height="1.27" fill="#e62323" /><rect x="7.6" y="11.36" width="2.87" height="1.27" fill="#ff7381" /><rect x="10.9" y="11.36" width="2.87" height="1.27" fill="#e62323" /><rect x="4.3" y="13.06" width="1.19" height="1.27" fill="#e62323" /><rect x="12.58" y="13.06" width="1.19" height="1.27" fill="#ff7381" /><rect x="5.92" y="13.06" width="2.87" height="1.27" fill="#ff7381" /><rect x="9.23" y="13.06" width="2.87" height="1.27" fill="#e62323" /><rect x="4.3" y="14.76" width="2.87" height="1.27" fill="#e62323" /><rect x="7.6" y="14.76" width="2.87" height="1.27" fill="#ff7381" /><rect x="10.9" y="14.76" width="2.87" height="1.27" fill="#e62323" /></svg>
<text x="108.0" y="120.0" font-family="'Segoe UI', 'Helvetica Neue', Arial, sans-serif" font-size="10" fill="#212121" text-anchor="middle" font-weight="500">afw-hub-jpe-${suffix}</text>
<text x="108.0" y="132.0" font-family="'Segoe UI', 'Helvetica Neue', Arial, sans-serif" font-size="9" fill="#212121" text-anchor="middle">azureFirewalls</text>
<line x1="46.0" y1="140.0" x2="170.0" y2="140.0" stroke="#CBD5E1" stroke-width="0.5" stroke-dasharray="3,2"/>
<svg x="44.0" y="143.0" width="14" height="14" viewBox="0 0 18 18" preserveAspectRatio="xMidYMid meet"><defs><linearGradient id="ic-afwPip-ad52e31e-75de-46af-9bdc-bea038ab4209" x1="9" y1="15.83" x2="9" y2="5.79" gradientUnits="userSpaceOnUse"><stop offset="0" stop-color="#32bedd" /><stop offset="0.18" stop-color="#32caea" /><stop offset="0.41" stop-color="#32d2f2" /><stop offset="0.78" stop-color="#32d4f5" /></linearGradient></defs><title>Icon-networking-69</title><path d="M.5,5.79h17a0,0,0,0,1,0,0v9.48a.57.57,0,0,1-.57.57H1.07a.57.57,0,0,1-.57-.57V5.79A0,0,0,0,1,.5,5.79Z" fill="url(#ic-afwPip-ad52e31e-75de-46af-9bdc-bea038ab4209)" /><path d="M1.07,2.17H16.93a.57.57,0,0,1,.57.57V5.79a0,0,0,0,1,0,0H.5a0,0,0,0,1,0,0V2.73A.57.57,0,0,1,1.07,2.17Z" fill="#767676" /><circle cx="12.82" cy="10.19" r="1.38" fill="#f2f2f2" /><circle cx="9.06" cy="10.19" r="1.38" fill="#f2f2f2" /><circle cx="5.18" cy="10.19" r="1.38" fill="#f2f2f2" /><rect x="2.79" y="3.25" width="12.43" height="1.46" rx="0.28" fill="#f2f2f2" /></svg>
<text x="61.0" y="155.0" font-family="'Segoe UI', 'Helvetica Neue', Arial, sans-serif" font-size="8" fill="#212121">pip-afw-jpe-${suffix}</text>
<rect x="30.0" y="182.0" width="156.0" height="120.0" rx="6" fill="#F0F6FF" stroke="#0078D4" stroke-width="1" stroke-dasharray="5,3"/>
<text x="38.0" y="196.0" font-family="'Segoe UI', 'Helvetica Neue', Arial, sans-serif" font-size="10" fill="#0078D4">Subnet:AzureFirewallManage…</text>
<text x="38.0" y="208.0" font-family="'Segoe UI', 'Helvetica Neue', Arial, sans-serif" font-size="9" fill="#0078D4">10.0.1.64/26</text>
<rect x="40.0" y="215.0" width="140.0" height="82.0" rx="8" fill="#00000018"/>
<rect x="38.0" y="212.0" width="140.0" height="82.0" rx="8" fill="#FFFFFF" stroke="#CBD5E1" stroke-width="1"/>
<text x="108.0" y="234.0" font-family="'Segoe UI', 'Helvetica Neue', Arial, sans-serif" font-size="10" fill="#212121" text-anchor="middle" font-weight="500">afw-hub-jpe-${suffix}</text>
<text x="108.0" y="246.0" font-family="'Segoe UI', 'Helvetica Neue', Arial, sans-serif" font-size="9" fill="#212121" text-anchor="middle">azureFirewalls</text>
<line x1="46.0" y1="272.0" x2="170.0" y2="272.0" stroke="#CBD5E1" stroke-width="0.5" stroke-dasharray="3,2"/>
<svg x="44.0" y="275.0" width="14" height="14" viewBox="0 0 18 18" preserveAspectRatio="xMidYMid meet"><defs><linearGradient id="ic-afwMgmtPip-ad52e31e-75de-46af-9bdc-bea038ab4209" x1="9" y1="15.83" x2="9" y2="5.79" gradientUnits="userSpaceOnUse"><stop offset="0" stop-color="#32bedd" /><stop offset="0.18" stop-color="#32caea" /><stop offset="0.41" stop-color="#32d2f2" /><stop offset="0.78" stop-color="#32d4f5" /></linearGradient></defs><title>Icon-networking-69</title><path d="M.5,5.79h17a0,0,0,0,1,0,0v9.48a.57.57,0,0,1-.57.57H1.07a.57.57,0,0,1-.57-.57V5.79A0,0,0,0,1,.5,5.79Z" fill="url(#ic-afwMgmtPip-ad52e31e-75de-46af-9bdc-bea038ab4209)" /><path d="M1.07,2.17H16.93a.57.57,0,0,1,.57.57V5.79a0,0,0,0,1,0,0H.5a0,0,0,0,1,0,0V2.73A.57.57,0,0,1,1.07,2.17Z" fill="#767676" /><circle cx="12.82" cy="10.19" r="1.38" fill="#f2f2f2" /><circle cx="9.06" cy="10.19" r="1.38" fill="#f2f2f2" /><circle cx="5.18" cy="10.19" r="1.38" fill="#f2f2f2" /><rect x="2.79" y="3.25" width="12.43" height="1.46" rx="0.28" fill="#f2f2f2" /></svg>
<text x="61.0" y="287.0" font-family="'Segoe UI', 'Helvetica Neue', Arial, sans-serif" font-size="8" fill="#212121" textLength="109.0" lengthAdjust="spacingAndGlyphs">pip-afw-mgmt-jpe-${suffix}</text>
<rect x="30.0" y="314.0" width="156.0" height="120.0" rx="6" fill="#F0F6FF" stroke="#0078D4" stroke-width="1" stroke-dasharray="5,3"/>
<text x="38.0" y="328.0" font-family="'Segoe UI', 'Helvetica Neue', Arial, sans-serif" font-size="10" fill="#0078D4">Subnet:snet-mgmt-jpe</text>
<text x="38.0" y="340.0" font-family="'Segoe UI', 'Helvetica Neue', Arial, sans-serif" font-size="9" fill="#0078D4">10.0.2.0/24</text>
<rect x="40.0" y="347.0" width="140.0" height="82.0" rx="8" fill="#00000018"/>
<rect x="38.0" y="344.0" width="140.0" height="82.0" rx="8" fill="#FFFFFF" stroke="#CBD5E1" stroke-width="1"/>
<svg x="96.0" y="350.0" width="24" height="24" viewBox="0 0 18 18" preserveAspectRatio="xMidYMid meet"><defs><linearGradient id="ic-vmMgmt-f34d9569-2bd0-4002-8f16-3d01d8106cb5" x1="8.88" y1="12.21" x2="8.88" y2="0.21" gradientUnits="userSpaceOnUse"><stop offset="0" stop-color="#0078d4" /><stop offset="0.82" stop-color="#5ea0ef" /></linearGradient><linearGradient id="ic-vmMgmt-bdb45a0b-eb58-4970-a60a-fb2ce314f866" x1="8.88" y1="16.84" x2="8.88" y2="12.21" gradientUnits="userSpaceOnUse"><stop offset="0.15" stop-color="#ccc" /><stop offset="1" stop-color="#707070" /></linearGradient></defs><title>Icon-compute-21</title><rect x="-0.12" y="0.21" width="18" height="12" rx="0.6" fill="url(#ic-vmMgmt-f34d9569-2bd0-4002-8f16-3d01d8106cb5)" /><polygon points="11.88 4.46 11.88 7.95 8.88 9.71 8.88 6.21 11.88 4.46" fill="#50e6ff" /><polygon points="11.88 4.46 8.88 6.22 5.88 4.46 8.88 2.71 11.88 4.46" fill="#c3f1ff" /><polygon points="8.88 6.22 8.88 9.71 5.88 7.95 5.88 4.46 8.88 6.22" fill="#9cebff" /><polygon points="5.88 7.95 8.88 6.21 8.88 9.71 5.88 7.95" fill="#c3f1ff" /><polygon points="11.88 7.95 8.88 6.21 8.88 9.71 11.88 7.95" fill="#9cebff" /><path d="M12.49,15.84c-1.78-.28-1.85-1.56-1.85-3.63H7.11c0,2.07-.06,3.35-1.84,3.63a1,1,0,0,0-.89,1h9A1,1,0,0,0,12.49,15.84Z" fill="url(#ic-vmMgmt-bdb45a0b-eb58-4970-a60a-fb2ce314f866)" /></svg>
<text x="108.0" y="384.0" font-family="'Segoe UI', 'Helvetica Neue', Arial, sans-serif" font-size="10" fill="#212121" text-anchor="middle" font-weight="500">vm-mgmt-jpe-${suffix}</text>
<text x="108.0" y="396.0" font-family="'Segoe UI', 'Helvetica Neue', Arial, sans-serif" font-size="9" fill="#212121" text-anchor="middle">virtualMachines</text>
<line x1="46.0" y1="404.0" x2="170.0" y2="404.0" stroke="#CBD5E1" stroke-width="0.5" stroke-dasharray="3,2"/>
<svg x="44.0" y="407.0" width="14" height="14" viewBox="0 0 18 18" preserveAspectRatio="xMidYMid meet"><defs><linearGradient id="ic-nicMgmt-fcad3287-b71c-44fa-971a-6a18bcf384a0" x1="9.01" y1="16.5" x2="9.01" y2="1.5" gradientUnits="userSpaceOnUse"><stop offset="0" stop-color="#5e9641" /><stop offset="0.34" stop-color="#6baa42" /><stop offset="0.67" stop-color="#73b743" /><stop offset="1" stop-color="#76bb43" /></linearGradient></defs><title>Icon-networking-80</title><path d="M15.89,2.91h1.27a.34.34,0,0,1,.34.34v3.5a.34.34,0,0,1-.34.34H15.89a0,0,0,0,1,0,0V2.91A0,0,0,0,1,15.89,2.91Z" fill="#ffca00" /><path d="M15.89,9h1.27a.34.34,0,0,1,.34.34v5.86a.34.34,0,0,1-.34.34H15.89a0,0,0,0,1,0,0V9A0,0,0,0,1,15.89,9Z" fill="#ffca00" /><rect x="2.13" y="1.5" width="13.76" height="15" rx="0.69" fill="url(#ic-nicMgmt-fcad3287-b71c-44fa-971a-6a18bcf384a0)" /><path d="M5.9,12.9H5.19A.2.2,0,0,1,5,12.69V4.34a.19.19,0,0,1,.19-.2H7.12a.19.19,0,0,1,.19.2.2.2,0,0,1-.19.21H5.38v7.93H5.9a.2.2,0,0,1,.19.21A.21.21,0,0,1,5.9,12.9Z" fill="#b4ec36" /><path d="M6,13.92H4.4a.2.2,0,0,1-.19-.21L4.08,3.38a.2.2,0,0,1,.06-.15.16.16,0,0,1,.13-.06H7.12v.41H4.47l.12,9.92H6Z" fill="#b4ec36" /><path d="M12,13H10.41a.19.19,0,0,1-.14-.07.18.18,0,0,1-.06-.14V7.9a.19.19,0,0,1,.19-.2l.91,0,0-2.25h.38l0,2.44a.2.2,0,0,1-.18.21l-.91,0v4.42H12Z" fill="#b4ec36" /><rect x="7.07" y="2.29" width="6.14" height="3.11" rx="0.26" fill="#365615" /><rect x="5.86" y="12.69" width="4.9" height="1.09" rx="0.26" transform="translate(21.54 4.93) rotate(90)" fill="#365615" /><rect x="3.99" y="12.71" width="4.9" height="1.09" rx="0.26" transform="translate(19.7 6.82) rotate(90)" fill="#365615" /><rect x="9.98" y="12.71" width="4.9" height="1.09" rx="0.26" transform="translate(25.68 0.83) rotate(90)" fill="#f2f2f2" /><ellipse cx="8.11" cy="8.06" rx="1.04" ry="1.12" fill="#f2f2f2" /><path d="M.5,5.7H1.77A.34.34,0,0,1,2.11,6v5.86a.34.34,0,0,1-.34.34H.5a0,0,0,0,1,0,0V5.7A0,0,0,0,1,.5,5.7Z" transform="translate(2.61 17.95) rotate(180)" fill="#3b3b3b" /></svg>
<text x="61.0" y="419.0" font-family="'Segoe UI', 'Helvetica Neue', Arial, sans-serif" font-size="8" fill="#212121" textLength="109.0" lengthAdjust="spacingAndGlyphs">nic-vm-mgmt-jpe-${suffix}</text>
<rect x="236.0" y="20.0" width="494.0" height="274.0" rx="8" fill="#E3EFF9" stroke="#1565C0" stroke-width="1.5"/>
<text x="248.0" y="38.0" font-family="'Segoe UI', 'Helvetica Neue', Arial, sans-serif" font-size="11" fill="#1565C0" font-weight="600">VNet: vnet-spoke-web-jpe-${suffix}</text>
<rect x="246.0" y="50.0" width="306.0" height="234.0" rx="6" fill="#F0F6FF" stroke="#0078D4" stroke-width="1" stroke-dasharray="5,3"/>
<text x="254.0" y="64.0" font-family="'Segoe UI', 'Helvetica Neue', Arial, sans-serif" font-size="10" fill="#0078D4">Subnet:snet-web-jpe</text>
<text x="254.0" y="76.0" font-family="'Segoe UI', 'Helvetica Neue', Arial, sans-serif" font-size="9" fill="#0078D4">10.1.1.0/24</text>
<rect x="256.0" y="140.0" width="140.0" height="60.0" rx="8" fill="#00000018"/>
<rect x="254.0" y="137.0" width="140.0" height="60.0" rx="8" fill="#FFFFFF" stroke="#CBD5E1" stroke-width="1"/>
<svg x="312.0" y="143.0" width="24" height="24" viewBox="0 0 18 18" preserveAspectRatio="xMidYMid meet"><defs><linearGradient id="ic-lb-ef84663a-a7b6-46a7-a275-1e419f5eae62" x1="9" y1="19.85" x2="9" y2="-1.02" gradientUnits="userSpaceOnUse"><stop offset="0" stop-color="#5e9624" /><stop offset="0.02" stop-color="#5f9724" /><stop offset="1" stop-color="#76bc2d" /></linearGradient></defs><title>Icon-networking-62</title><path d="M.18,8.57,8.57.18a.6.6,0,0,1,.86,0l8.39,8.39a.6.6,0,0,1,0,.86l-8.4,8.4a.6.6,0,0,1-.84,0L.18,9.43A.6.6,0,0,1,.18,8.57Z" fill="url(#ic-lb-ef84663a-a7b6-46a7-a275-1e419f5eae62)" /><path d="M11.2,4,9.08,1.89a.12.12,0,0,0-.16,0L6.8,4a.1.1,0,0,0,.08.18H8.12a.11.11,0,0,1,.11.11v2a.11.11,0,0,0,.11.11H9.66a.11.11,0,0,0,.11-.11v-2a.11.11,0,0,1,.11-.11h1.24A.1.1,0,0,0,11.2,4Z" fill="#b4ec36" /><path d="M4,6.61,1.9,8.74a.11.11,0,0,0,0,.15L4,11a.11.11,0,0,0,.19-.08V9.69a.11.11,0,0,1,.11-.11h2a.1.1,0,0,0,.1-.11V8.15A.1.1,0,0,0,6.33,8h-2a.1.1,0,0,1-.11-.1V6.69A.11.11,0,0,0,4,6.61Z" fill="#b4ec36" /><path d="M14.08,11l2.13-2.12a.11.11,0,0,0,0-.15L14.08,6.61a.11.11,0,0,0-.18.08V7.94a.1.1,0,0,1-.11.1h-2a.1.1,0,0,0-.1.11V9.47a.1.1,0,0,0,.1.11h2a.11.11,0,0,1,.11.11v1.24A.11.11,0,0,0,14.08,11Z" fill="#b4ec36" /><path d="M11.79,9a2.79,2.79,0,1,0-3.54,2.67v.95a1.71,1.71,0,1,0,1.57,0v-1A2.77,2.77,0,0,0,11.79,9Z" fill="#fff" /><circle id="ic-lb-e99c3387-15c3-4f28-bd4b-cb209b430e06" cx="9.01" cy="8.99" r="1.62" fill="#5ea0ef" /></svg>
<text x="324.0" y="177.0" font-family="'Segoe UI', 'Helvetica Neue', Arial, sans-serif" font-size="10" fill="#212121" text-anchor="middle" font-weight="500">lbi-web-jpe-${suffix}</text>
<text x="324.0" y="189.0" font-family="'Segoe UI', 'Helvetica Neue', Arial, sans-serif" font-size="9" fill="#212121" text-anchor="middle">loadBalancers</text>
<rect x="406.0" y="83.0" width="140.0" height="82.0" rx="8" fill="#00000018"/>
<rect x="404.0" y="80.0" width="140.0" height="82.0" rx="8" fill="#FFFFFF" stroke="#CBD5E1" stroke-width="1"/>
<svg x="462.0" y="86.0" width="24" height="24" viewBox="0 0 18 18" preserveAspectRatio="xMidYMid meet"><defs><linearGradient id="ic-vmWeb01-f34d9569-2bd0-4002-8f16-3d01d8106cb5" x1="8.88" y1="12.21" x2="8.88" y2="0.21" gradientUnits="userSpaceOnUse"><stop offset="0" stop-color="#0078d4" /><stop offset="0.82" stop-color="#5ea0ef" /></linearGradient><linearGradient id="ic-vmWeb01-bdb45a0b-eb58-4970-a60a-fb2ce314f866" x1="8.88" y1="16.84" x2="8.88" y2="12.21" gradientUnits="userSpaceOnUse"><stop offset="0.15" stop-color="#ccc" /><stop offset="1" stop-color="#707070" /></linearGradient></defs><title>Icon-compute-21</title><rect x="-0.12" y="0.21" width="18" height="12" rx="0.6" fill="url(#ic-vmWeb01-f34d9569-2bd0-4002-8f16-3d01d8106cb5)" /><polygon points="11.88 4.46 11.88 7.95 8.88 9.71 8.88 6.21 11.88 4.46" fill="#50e6ff" /><polygon points="11.88 4.46 8.88 6.22 5.88 4.46 8.88 2.71 11.88 4.46" fill="#c3f1ff" /><polygon points="8.88 6.22 8.88 9.71 5.88 7.95 5.88 4.46 8.88 6.22" fill="#9cebff" /><polygon points="5.88 7.95 8.88 6.21 8.88 9.71 5.88 7.95" fill="#c3f1ff" /><polygon points="11.88 7.95 8.88 6.21 8.88 9.71 11.88 7.95" fill="#9cebff" /><path d="M12.49,15.84c-1.78-.28-1.85-1.56-1.85-3.63H7.11c0,2.07-.06,3.35-1.84,3.63a1,1,0,0,0-.89,1h9A1,1,0,0,0,12.49,15.84Z" fill="url(#ic-vmWeb01-bdb45a0b-eb58-4970-a60a-fb2ce314f866)" /></svg>
<text x="474.0" y="120.0" font-family="'Segoe UI', 'Helvetica Neue', Arial, sans-serif" font-size="10" fill="#212121" text-anchor="middle" font-weight="500" textLength="124.0" lengthAdjust="spacingAndGlyphs">vm-web-01-jpe-${suffix}</text>
<text x="474.0" y="132.0" font-family="'Segoe UI', 'Helvetica Neue', Arial, sans-serif" font-size="9" fill="#212121" text-anchor="middle">virtualMachines</text>
<line x1="412.0" y1="140.0" x2="536.0" y2="140.0" stroke="#CBD5E1" stroke-width="0.5" stroke-dasharray="3,2"/>
<svg x="410.0" y="143.0" width="14" height="14" viewBox="0 0 18 18" preserveAspectRatio="xMidYMid meet"><defs><linearGradient id="ic-nic01-fcad3287-b71c-44fa-971a-6a18bcf384a0" x1="9.01" y1="16.5" x2="9.01" y2="1.5" gradientUnits="userSpaceOnUse"><stop offset="0" stop-color="#5e9641" /><stop offset="0.34" stop-color="#6baa42" /><stop offset="0.67" stop-color="#73b743" /><stop offset="1" stop-color="#76bb43" /></linearGradient></defs><title>Icon-networking-80</title><path d="M15.89,2.91h1.27a.34.34,0,0,1,.34.34v3.5a.34.34,0,0,1-.34.34H15.89a0,0,0,0,1,0,0V2.91A0,0,0,0,1,15.89,2.91Z" fill="#ffca00" /><path d="M15.89,9h1.27a.34.34,0,0,1,.34.34v5.86a.34.34,0,0,1-.34.34H15.89a0,0,0,0,1,0,0V9A0,0,0,0,1,15.89,9Z" fill="#ffca00" /><rect x="2.13" y="1.5" width="13.76" height="15" rx="0.69" fill="url(#ic-nic01-fcad3287-b71c-44fa-971a-6a18bcf384a0)" /><path d="M5.9,12.9H5.19A.2.2,0,0,1,5,12.69V4.34a.19.19,0,0,1,.19-.2H7.12a.19.19,0,0,1,.19.2.2.2,0,0,1-.19.21H5.38v7.93H5.9a.2.2,0,0,1,.19.21A.21.21,0,0,1,5.9,12.9Z" fill="#b4ec36" /><path d="M6,13.92H4.4a.2.2,0,0,1-.19-.21L4.08,3.38a.2.2,0,0,1,.06-.15.16.16,0,0,1,.13-.06H7.12v.41H4.47l.12,9.92H6Z" fill="#b4ec36" /><path d="M12,13H10.41a.19.19,0,0,1-.14-.07.18.18,0,0,1-.06-.14V7.9a.19.19,0,0,1,.19-.2l.91,0,0-2.25h.38l0,2.44a.2.2,0,0,1-.18.21l-.91,0v4.42H12Z" fill="#b4ec36" /><rect x="7.07" y="2.29" width="6.14" height="3.11" rx="0.26" fill="#365615" /><rect x="5.86" y="12.69" width="4.9" height="1.09" rx="0.26" transform="translate(21.54 4.93) rotate(90)" fill="#365615" /><rect x="3.99" y="12.71" width="4.9" height="1.09" rx="0.26" transform="translate(19.7 6.82) rotate(90)" fill="#365615" /><rect x="9.98" y="12.71" width="4.9" height="1.09" rx="0.26" transform="translate(25.68 0.83) rotate(90)" fill="#f2f2f2" /><ellipse cx="8.11" cy="8.06" rx="1.04" ry="1.12" fill="#f2f2f2" /><path d="M.5,5.7H1.77A.34.34,0,0,1,2.11,6v5.86a.34.34,0,0,1-.34.34H.5a0,0,0,0,1,0,0V5.7A0,0,0,0,1,.5,5.7Z" transform="translate(2.61 17.95) rotate(180)" fill="#3b3b3b" /></svg>
<text x="427.0" y="155.0" font-family="'Segoe UI', 'Helvetica Neue', Arial, sans-serif" font-size="8" fill="#212121">nic-vm-web-01-jpe</text>
<rect x="406.0" y="175.0" width="140.0" height="82.0" rx="8" fill="#00000018"/>
<rect x="404.0" y="172.0" width="140.0" height="82.0" rx="8" fill="#FFFFFF" stroke="#CBD5E1" stroke-width="1"/>
<svg x="462.0" y="178.0" width="24" height="24" viewBox="0 0 18 18" preserveAspectRatio="xMidYMid meet"><defs><linearGradient id="ic-vmWeb02-f34d9569-2bd0-4002-8f16-3d01d8106cb5" x1="8.88" y1="12.21" x2="8.88" y2="0.21" gradientUnits="userSpaceOnUse"><stop offset="0" stop-color="#0078d4" /><stop offset="0.82" stop-color="#5ea0ef" /></linearGradient><linearGradient id="ic-vmWeb02-bdb45a0b-eb58-4970-a60a-fb2ce314f866" x1="8.88" y1="16.84" x2="8.88" y2="12.21" gradientUnits="userSpaceOnUse"><stop offset="0.15" stop-color="#ccc" /><stop offset="1" stop-color="#707070" /></linearGradient></defs><title>Icon-compute-21</title><rect x="-0.12" y="0.21" width="18" height="12" rx="0.6" fill="url(#ic-vmWeb02-f34d9569-2bd0-4002-8f16-3d01d8106cb5)" /><polygon points="11.88 4.46 11.88 7.95 8.88 9.71 8.88 6.21 11.88 4.46" fill="#50e6ff" /><polygon points="11.88 4.46 8.88 6.22 5.88 4.46 8.88 2.71 11.88 4.46" fill="#c3f1ff" /><polygon points="8.88 6.22 8.88 9.71 5.88 7.95 5.88 4.46 8.88 6.22" fill="#9cebff" /><polygon points="5.88 7.95 8.88 6.21 8.88 9.71 5.88 7.95" fill="#c3f1ff" /><polygon points="11.88 7.95 8.88 6.21 8.88 9.71 11.88 7.95" fill="#9cebff" /><path d="M12.49,15.84c-1.78-.28-1.85-1.56-1.85-3.63H7.11c0,2.07-.06,3.35-1.84,3.63a1,1,0,0,0-.89,1h9A1,1,0,0,0,12.49,15.84Z" fill="url(#ic-vmWeb02-bdb45a0b-eb58-4970-a60a-fb2ce314f866)" /></svg>
<text x="474.0" y="212.0" font-family="'Segoe UI', 'Helvetica Neue', Arial, sans-serif" font-size="10" fill="#212121" text-anchor="middle" font-weight="500" textLength="124.0" lengthAdjust="spacingAndGlyphs">vm-web-02-jpe-${suffix}</text>
<text x="474.0" y="224.0" font-family="'Segoe UI', 'Helvetica Neue', Arial, sans-serif" font-size="9" fill="#212121" text-anchor="middle">virtualMachines</text>
<line x1="412.0" y1="232.0" x2="536.0" y2="232.0" stroke="#CBD5E1" stroke-width="0.5" stroke-dasharray="3,2"/>
<svg x="410.0" y="235.0" width="14" height="14" viewBox="0 0 18 18" preserveAspectRatio="xMidYMid meet"><defs><linearGradient id="ic-nic02-fcad3287-b71c-44fa-971a-6a18bcf384a0" x1="9.01" y1="16.5" x2="9.01" y2="1.5" gradientUnits="userSpaceOnUse"><stop offset="0" stop-color="#5e9641" /><stop offset="0.34" stop-color="#6baa42" /><stop offset="0.67" stop-color="#73b743" /><stop offset="1" stop-color="#76bb43" /></linearGradient></defs><title>Icon-networking-80</title><path d="M15.89,2.91h1.27a.34.34,0,0,1,.34.34v3.5a.34.34,0,0,1-.34.34H15.89a0,0,0,0,1,0,0V2.91A0,0,0,0,1,15.89,2.91Z" fill="#ffca00" /><path d="M15.89,9h1.27a.34.34,0,0,1,.34.34v5.86a.34.34,0,0,1-.34.34H15.89a0,0,0,0,1,0,0V9A0,0,0,0,1,15.89,9Z" fill="#ffca00" /><rect x="2.13" y="1.5" width="13.76" height="15" rx="0.69" fill="url(#ic-nic02-fcad3287-b71c-44fa-971a-6a18bcf384a0)" /><path d="M5.9,12.9H5.19A.2.2,0,0,1,5,12.69V4.34a.19.19,0,0,1,.19-.2H7.12a.19.19,0,0,1,.19.2.2.2,0,0,1-.19.21H5.38v7.93H5.9a.2.2,0,0,1,.19.21A.21.21,0,0,1,5.9,12.9Z" fill="#b4ec36" /><path d="M6,13.92H4.4a.2.2,0,0,1-.19-.21L4.08,3.38a.2.2,0,0,1,.06-.15.16.16,0,0,1,.13-.06H7.12v.41H4.47l.12,9.92H6Z" fill="#b4ec36" /><path d="M12,13H10.41a.19.19,0,0,1-.14-.07.18.18,0,0,1-.06-.14V7.9a.19.19,0,0,1,.19-.2l.91,0,0-2.25h.38l0,2.44a.2.2,0,0,1-.18.21l-.91,0v4.42H12Z" fill="#b4ec36" /><rect x="7.07" y="2.29" width="6.14" height="3.11" rx="0.26" fill="#365615" /><rect x="5.86" y="12.69" width="4.9" height="1.09" rx="0.26" transform="translate(21.54 4.93) rotate(90)" fill="#365615" /><rect x="3.99" y="12.71" width="4.9" height="1.09" rx="0.26" transform="translate(19.7 6.82) rotate(90)" fill="#365615" /><rect x="9.98" y="12.71" width="4.9" height="1.09" rx="0.26" transform="translate(25.68 0.83) rotate(90)" fill="#f2f2f2" /><ellipse cx="8.11" cy="8.06" rx="1.04" ry="1.12" fill="#f2f2f2" /><path d="M.5,5.7H1.77A.34.34,0,0,1,2.11,6v5.86a.34.34,0,0,1-.34.34H.5a0,0,0,0,1,0,0V5.7A0,0,0,0,1,.5,5.7Z" transform="translate(2.61 17.95) rotate(180)" fill="#3b3b3b" /></svg>
<text x="427.0" y="247.0" font-family="'Segoe UI', 'Helvetica Neue', Arial, sans-serif" font-size="8" fill="#212121">nic-vm-web-02-jpe</text>
<line x1="250.0" y1="262.0" x2="548.0" y2="262.0" stroke="#0078D4" stroke-width="0.5" stroke-dasharray="3,2"/>
<svg x="252.0" y="266.0" width="14" height="14" viewBox="0 0 18 18" preserveAspectRatio="xMidYMid meet"><defs><linearGradient id="ic-routeTable-ec6ad825-6008-44c0-8c46-d31711213827" x1="10.56" y1="7.77" x2="10.56" y2="19.24" gradientUnits="userSpaceOnUse"><stop offset="0.22" stop-color="#32d4f5" /><stop offset="1" stop-color="#198ab3" /></linearGradient><linearGradient id="ic-routeTable-b2c2be9e-0a70-4a83-ab8f-bf8022e67924" x1="10.23" y1="1.63" x2="11.07" y2="12.04" gradientUnits="userSpaceOnUse"><stop offset="0.22" stop-color="#32d4f5" /><stop offset="1" stop-color="#198ab3" /></linearGradient></defs><title>Icon-networking-82</title><path d="M16.23,17.17A1.21,1.21,0,0,0,17.46,16V15.8c-.49-3.86-2.69-7-6.89-7s-6.48,2.66-6.91,7a1.24,1.24,0,0,0,1.1,1.36H16.23Z" fill="url(#ic-routeTable-ec6ad825-6008-44c0-8c46-d31711213827)" /><path d="M10.57,9.71a3.86,3.86,0,0,1-2.1-.61l2.08,5.42,2.06-5.39A3.83,3.83,0,0,1,10.57,9.71Z" fill="#fff" opacity="0.8" /><circle cx="10.57" cy="5.84" r="3.87" fill="url(#ic-routeTable-b2c2be9e-0a70-4a83-ab8f-bf8022e67924)" /><path d="M6,5.88V1A.16.16,0,0,0,5.84.83H4.57A.17.17,0,0,0,4.39,1V5.71a.18.18,0,0,1-.17.17H3.1A.12.12,0,0,1,3,5.76V4.45a.11.11,0,0,0-.19-.08L.59,6.57a.16.16,0,0,0,0,.24L2.79,9A.11.11,0,0,0,3,8.93V7.61A.11.11,0,0,1,3.1,7.5H5.84A.17.17,0,0,0,6,7.33V5.88Z" fill="#0078d4" /></svg>
<text x="269.0" y="278.0" font-family="'Segoe UI', 'Helvetica Neue', Arial, sans-serif" font-size="8" fill="#212121">UDR: rt-spoke-web-jpe-${su…</text>
<rect x="564.0" y="50.0" width="156.0" height="98.0" rx="6" fill="#F0F6FF" stroke="#0078D4" stroke-width="1" stroke-dasharray="5,3"/>
<text x="572.0" y="64.0" font-family="'Segoe UI', 'Helvetica Neue', Arial, sans-serif" font-size="10" fill="#0078D4">Subnet:snet-pep-jpe</text>
<text x="572.0" y="76.0" font-family="'Segoe UI', 'Helvetica Neue', Arial, sans-serif" font-size="9" fill="#0078D4">10.1.2.0/24</text>
<rect x="574.0" y="83.0" width="140.0" height="60.0" rx="8" fill="#00000018"/>
<rect x="572.0" y="80.0" width="140.0" height="60.0" rx="8" fill="#FFFFFF" stroke="#CBD5E1" stroke-width="1"/>
<svg x="630.0" y="86.0" width="24" height="24" viewBox="0 0 18 18" preserveAspectRatio="xMidYMid meet"><defs><linearGradient id="ic-pepAcr-f386bb7a-bcb2-4b67-b5b2-06819618ff51" x1="9.084" y1="790.967" x2="9.084" y2="787.492" gradientTransform="matrix(1, 0, 0, -1, 0, 791.516)" gradientUnits="userSpaceOnUse"><stop offset="0" stop-color="#50e6ff" /><stop offset="1" stop-color="#32bedd" /></linearGradient><linearGradient id="ic-pepAcr-a62a9cad-b173-4785-ba81-8ee30d4dc6eb" x1="9.065" y1="13.843" x2="9.065" y2="10.368" gradientUnits="userSpaceOnUse"><stop offset="0" stop-color="#5e9624" /><stop offset="0.183" stop-color="#629c25" /><stop offset="0.435" stop-color="#6dae2a" /><stop offset="0.726" stop-color="#7fcb30" /><stop offset="0.822" stop-color="#86d633" /></linearGradient></defs><g id="ic-pepAcr-bdcd7268-31fc-4163-9544-651d61f1498e"><g><path d="M7.85,13.342a1.738,1.738,0,1,0,2.436-2.479,1.715,1.715,0,0,0-.626-.389V3.009H8.548v7.444a1.729,1.729,0,0,0-.7,2.891Z" fill="#b3b3b3" /><circle cx="9.084" cy="2.209" r="1.738" fill="url(#ic-pepAcr-f386bb7a-bcb2-4b67-b5b2-06819618ff51)" /><g><path d="M2.632,10.449h.937a.3.3,0,0,1,.3.3v6.909a.6.6,0,0,1-.6.6H2.332a0,0,0,0,1,0,0V10.749A.3.3,0,0,1,2.632,10.449Z" transform="translate(15.452 22.292) rotate(134.919)" fill="#50e6ff" /><path d="M2.581,6.093h.937a.3.3,0,0,1,.3.3v7.4a0,0,0,0,1,0,0H2.88a.6.6,0,0,1-.6-.6v-6.8A.3.3,0,0,1,2.581,6.093Z" transform="translate(7.91 0.749) rotate(44.919)" fill="#1490df" /><path d="M14.132,10.449h.937a.6.6,0,0,1,.6.6v6.909a.3.3,0,0,1-.3.3h-.937a.3.3,0,0,1-.3-.3V10.449a0,0,0,0,1,0,0Z" transform="translate(14.542 -6.333) rotate(45.081)" fill="#50e6ff" /><path d="M14.782,6.093h.937a0,0,0,0,1,0,0v7.4a.3.3,0,0,1-.3.3h-.937a.3.3,0,0,1-.3-.3v-6.8A.6.6,0,0,1,14.782,6.093Z" transform="translate(32.558 6.424) rotate(135.081)" fill="#1490df" /></g><circle cx="9.065" cy="12.106" r="1.738" fill="url(#ic-pepAcr-a62a9cad-b173-4785-ba81-8ee30d4dc6eb)" /></g></g></svg>
<text x="642.0" y="120.0" font-family="'Segoe UI', 'Helvetica Neue', Arial, sans-serif" font-size="10" fill="#212121" text-anchor="middle" font-weight="500">pep-acr-jpe-${suffix}</text>
<text x="642.0" y="132.0" font-family="'Segoe UI', 'Helvetica Neue', Arial, sans-serif" font-size="9" fill="#212121" text-anchor="middle">privateEndpoints</text>
<rect x="772.0" y="83.0" width="140.0" height="60.0" rx="8" fill="#00000018"/>
<rect x="770.0" y="80.0" width="140.0" height="60.0" rx="8" fill="#FFFFFF" stroke="#CBD5E1" stroke-width="1"/>
<svg x="828.0" y="86.0" width="24" height="24" viewBox="0 0 18 18" preserveAspectRatio="xMidYMid meet"><defs><linearGradient id="ic-acr-bdf27dc6-025c-4805-8bfd-3a05defd3fbd" x1="8.637" y1="-1.991" x2="8.637" y2="16.739" gradientUnits="userSpaceOnUse"><stop offset="0" stop-color="#5ea0ef" /><stop offset="1" stop-color="#0078d4" /></linearGradient><linearGradient id="ic-acr-fcd6c6c7-e2eb-4a32-b914-3a8485585a1b" x1="12.96" y1="8.561" x2="12.96" y2="6.141" gradientTransform="matrix(1, 0, 0, -1, 0, 20)" gradientUnits="userSpaceOnUse"><stop offset="0" stop-color="#333132" /><stop offset="1" stop-color="#5b5a5c" /></linearGradient></defs><path d="M7.43,8.178l2.589-1.573,7.255,2.731A3.664,3.664,0,0,0,16.23,7.49l-.01-.05A4.194,4.194,0,0,0,14,6.32a4.91,4.91,0,0,0-5.1-4.7A5.071,5.071,0,0,0,4.06,4.91,4.621,4.621,0,0,0,0,9.39a4.73,4.73,0,0,0,4.89,4.54H7.43Z" fill="url(#ic-acr-bdf27dc6-025c-4805-8bfd-3a05defd3fbd)" /><polygon points="10.07 7.159 10.08 11.439 17.99 13.119 17.99 10.139 10.07 7.159" fill="#767676" /><polyline points="10.07 7.159 7.93 8.459 7.93 12.439 10.08 11.439" fill="#999" /><polygon points="13.68 11.499 14.4 11.699 14.4 9.369 13.68 9.119 13.68 11.499" fill="#a3a3a3" /><polygon points="12.96 8.889 12.24 8.629 12.24 11.119 12.96 11.319 12.96 8.889" fill="#a3a3a3" /><polygon points="15.12 11.889 15.82 12.079 15.84 9.859 15.12 9.619 15.12 11.889" fill="#a3a3a3" /><polygon points="10.81 10.749 11.53 10.929 11.53 8.399 10.81 8.159 10.81 10.749" fill="#a3a3a3" /><polygon points="17.27 10.349 16.55 10.099 16.55 12.269 17.27 12.469 17.27 10.349" fill="#a3a3a3" /><path id="ic-acr-ef0d1b54-a1e7-4cb9-a4e5-8a8518e7c127" d="M8.66,11.369l-.36.21V8.749l.36-.19Zm.71-3.22L9,8.389v2.75l.37-.2Z" fill="#b3b3b3" /><polygon points="17.99 13.119 15.83 13.859 7.93 12.439 10.08 11.439 17.99 13.119" fill="url(#ic-acr-fcd6c6c7-e2eb-4a32-b914-3a8485585a1b)" /><polygon points="17.99 16.169 10.04 17.679 10.08 12.089 17.99 13.559 17.99 16.169" fill="#767676" /><polygon points="10.81 16.759 10.81 13.209 11.53 13.299 11.53 16.639 10.81 16.759" fill="#a3a3a3" /><polygon points="12.96 16.399 12.24 16.529 12.24 13.389 12.96 13.499 12.96 16.399 12.96 16.399" fill="#a3a3a3" /><polygon points="13.68 16.289 13.68 13.569 14.4 13.659 14.4 16.159 13.68 16.289" fill="#a3a3a3" /><polygon points="15.83 15.909 15.12 16.039 15.12 13.749 15.83 13.859 15.83 15.909" fill="#a3a3a3" /><polygon points="17.29 15.679 16.55 15.809 16.55 13.929 17.24 14.019 17.29 15.679" fill="#a3a3a3" /><path id="ic-acr-b9f25eb4-4c88-45c2-bc4d-f992757d7e0e" d="M7.93,16.4v-3.26l2.16-1v5.6Z" fill="#999" /><path id="ic-acr-eb9200a7-4693-4427-bdae-b33ce90ff7f2" d="M8.61,16.389l-.32-.16v-2.76l.32-.15Zm.77-3.45-.38.19v3.48l.37.19v-3.86Z" fill="#b3b3b3" /></svg>
<text x="840.0" y="120.0" font-family="'Segoe UI', 'Helvetica Neue', Arial, sans-serif" font-size="10" fill="#212121" text-anchor="middle" font-weight="500" textLength="124.0" lengthAdjust="spacingAndGlyphs">crlabhandsojpe${suffix}</text>
<text x="840.0" y="132.0" font-family="'Segoe UI', 'Helvetica Neue', Arial, sans-serif" font-size="9" fill="#212121" text-anchor="middle">registries</text>
<line x1="712.0" y1="110.0" x2="770.0" y2="110.0" stroke="#64748B" stroke-width="1.5"/>
<rect x="415.0" y="317.0" width="140.0" height="60.0" rx="8" fill="#00000018"/>
<rect x="413.0" y="314.0" width="140.0" height="60.0" rx="8" fill="#FFFFFF" stroke="#CBD5E1" stroke-width="1"/>
<svg x="471.0" y="320.0" width="24" height="24" viewBox="0 0 18 18" preserveAspectRatio="xMidYMid meet"><defs><radialGradient id="ic-acrDnsZone-e7579f4d-36a3-4693-a726-7a6050ac5671" cx="-6811.4" cy="6729.69" r="17" gradientTransform="matrix(0.5, 0, 0, -0.5, 3414.91, 3374.05)" gradientUnits="userSpaceOnUse"><stop offset="0.18" stop-color="#5ea0ef" /><stop offset="1" stop-color="#0078d4" /></radialGradient></defs><title>Icon-networking-64</title><path id="ic-acrDnsZone-f57e105d-6d2d-4ad7-b8c3-c10684c9f9b8" d="M14.21,15.72A8.5,8.5,0,0,1,3.79,2.28l.09-.06a8.5,8.5,0,0,1,10.33,13.5" fill="url(#ic-acrDnsZone-e7579f4d-36a3-4693-a726-7a6050ac5671)" /><path d="M9,1.31A7.69,7.69,0,1,0,16.69,9,7.7,7.7,0,0,0,9,1.31ZM14.15,3.9A7.37,7.37,0,0,1,12,4.7,8.83,8.83,0,0,0,10.75,2,7.2,7.2,0,0,1,14.15,3.9ZM9,1.74a6.59,6.59,0,0,1,1.09.09h0a7.48,7.48,0,0,1,1.53,3,15.12,15.12,0,0,1-5.45,0A7.38,7.38,0,0,1,7.68,1.89l0,0A7.34,7.34,0,0,1,9,1.74ZM7,2A8.72,8.72,0,0,0,5.73,4.68a5.58,5.58,0,0,1-1.9-.77A7.35,7.35,0,0,1,7,2ZM3.72,14a5.27,5.27,0,0,1,1.78-.76,7.08,7.08,0,0,0,1.35,2.72A7.25,7.25,0,0,1,3.72,14Zm6.41,2.2A7.08,7.08,0,0,1,9,16.26a6.83,6.83,0,0,1-1.44-.15l0,0a6,6,0,0,1-1.67-3,14.73,14.73,0,0,1,5.88,0,6,6,0,0,1-1.69,3Zm.73-.16a7.13,7.13,0,0,0,1.38-2.8,6.68,6.68,0,0,1,2,.83A7.13,7.13,0,0,1,10.86,16Zm1.48-3.22c.08-.36.15-.73.2-1.12l-.46.11c-.05.31-.1.62-.17.91a15.23,15.23,0,0,0-6.09,0c-.07-.27-.12-.56-.17-.86a.28.28,0,0,1,0-.09l-.46-.13a2.36,2.36,0,0,0,0,.28c0,.32.11.62.17.91a5.9,5.9,0,0,0-2,.85,7.24,7.24,0,0,1,.11-9.4,6.29,6.29,0,0,0,2.08.86c-.07.24-.13.5-.18.76s0,.25-.08.37l.47-.11,0-.17c.06-.26.12-.51.19-.75A14.89,14.89,0,0,0,9,5.48a15,15,0,0,0,2.78-.26c.07.27.14.56.2.85l.46.11q-.11-.54-.24-1a7.73,7.73,0,0,0,2.3-.91,7.22,7.22,0,0,1,.06,9.49A7.28,7.28,0,0,0,12.34,12.79Z" fill="#5ea0ef" /><path d="M3.69,7a7.92,7.92,0,0,1,1.16-.08,2.44,2.44,0,0,1,1.71.52A2,2,0,0,1,7.15,8.9a2.21,2.21,0,0,1-.61,1.64,2.6,2.6,0,0,1-1.86.61,9.17,9.17,0,0,1-1-.05Zm.55,3.73a4,4,0,0,0,.55,0A1.62,1.62,0,0,0,6.58,8.92,1.5,1.5,0,0,0,4.87,7.3a3.17,3.17,0,0,0-.63,0Z" fill="#fff" /><path d="M7.86,11.11V6.9h.59L9.8,9a12.18,12.18,0,0,1,.76,1.37h0c-.05-.56-.06-1.07-.06-1.73V6.9H11v4.21h-.55L9.13,9c-.29-.47-.57-1-.79-1.4h0c0,.53,0,1,0,1.74v1.8Z" fill="#fff" /><path d="M11.89,10.45a2,2,0,0,0,1,.27c.56,0,.88-.29.88-.72s-.22-.62-.79-.83-1.12-.6-1.12-1.2a1.22,1.22,0,0,1,1.37-1.14,2,2,0,0,1,.93.2L14,7.48a1.63,1.63,0,0,0-.8-.2c-.58,0-.8.34-.8.63s.26.59.84.81,1.08.62,1.08,1.24-.48,1.21-1.48,1.21a2.16,2.16,0,0,1-1.07-.27Z" fill="#fff" /></svg>
<text x="483.0" y="354.0" font-family="'Segoe UI', 'Helvetica Neue', Arial, sans-serif" font-size="10" fill="#212121" text-anchor="middle" font-weight="500">privatelink.azurecr.io</text>
<text x="483.0" y="366.0" font-family="'Segoe UI', 'Helvetica Neue', Arial, sans-serif" font-size="9" fill="#212121" text-anchor="middle">privateDnsZones</text>
<line x1="108.0" y1="444.0" x2="108.0" y2="464.0" stroke="#64748B" stroke-width="1.5"/>
<rect x="40.0" y="467.0" width="140.0" height="60.0" rx="8" fill="#00000018"/>
<rect x="38.0" y="464.0" width="140.0" height="60.0" rx="8" fill="#FFFFFF" stroke="#CBD5E1" stroke-width="1"/>
<svg x="96.0" y="470.0" width="24" height="24" viewBox="0 0 18 18" preserveAspectRatio="xMidYMid meet"><defs><linearGradient id="ic-bastion-b1ebad31-96e8-487e-93d6-4a68da28a89e" x1="12.896" y1="-0.54" x2="12.896" y2="6.922" gradientTransform="translate(1.05 10.166) rotate(-44.919)" gradientUnits="userSpaceOnUse"><stop offset="0" stop-color="#5ea0ef" /><stop offset="1" stop-color="#0078d4" /></linearGradient><linearGradient id="ic-bastion-fb6a68a2-e02a-438b-8ccf-ab9786098481" x1="5.104" y1="5.035" x2="5.104" y2="12.497" gradientTransform="translate(2.636 18.68) rotate(-135.081)" gradientUnits="userSpaceOnUse"><stop offset="0" stop-color="#5ea0ef" /><stop offset="1" stop-color="#0078d4" /></linearGradient></defs><path d="M12.315,4.43h1.136a.363.363,0,0,1,.363.363v8.382a.727.727,0,0,1-.727.727H11.951a0,0,0,0,1,0,0V4.793A.363.363,0,0,1,12.315,4.43Z" transform="translate(28.47 6.515) rotate(134.919)" fill="#83b9f9" /><path d="M12.253-.856h1.136a.363.363,0,0,1,.363.363V8.483a0,0,0,0,1,0,0H12.616a.727.727,0,0,1-.727-.727V-.492a.363.363,0,0,1,.363-.363Z" transform="translate(6.435 -7.94) rotate(44.919)" fill="url(#ic-bastion-b1ebad31-96e8-487e-93d6-4a68da28a89e)" /><path d="M4.186,9.411H5.322a.727.727,0,0,1,.727.727v8.382a.363.363,0,0,1-.363.363H4.549a.363.363,0,0,1-.363-.363V9.411a0,0,0,0,1,0,0Z" transform="translate(11.521 0.534) rotate(45.081)" fill="#83b9f9" /><path d="M4.974,4.126H6.11a0,0,0,0,1,0,0V13.1a.363.363,0,0,1-.363.363H4.611a.363.363,0,0,1-.363-.363V4.852a.727.727,0,0,1,.727-.727Z" transform="translate(15.056 11.366) rotate(135.081)" fill="url(#ic-bastion-fb6a68a2-e02a-438b-8ccf-ab9786098481)" /></svg>
<text x="108.0" y="504.0" font-family="'Segoe UI', 'Helvetica Neue', Arial, sans-serif" font-size="10" fill="#212121" text-anchor="middle" font-weight="500">bas-hub-jpe-${suffix}</text>
<text x="108.0" y="516.0" font-family="'Segoe UI', 'Helvetica Neue', Arial, sans-serif" font-size="9" fill="#212121" text-anchor="middle">bastionHosts</text>
<rect x="972.0" y="43.0" width="140.0" height="60.0" rx="8" fill="#00000018"/>
<rect x="970.0" y="40.0" width="140.0" height="60.0" rx="8" fill="#FFFFFF" stroke="#CBD5E1" stroke-width="1"/>
<svg x="1028.0" y="46.0" width="24" height="24" viewBox="0 0 18 18" preserveAspectRatio="xMidYMid meet"><defs><linearGradient id="ic-logWorkspace-a997e203-1d7d-4cb9-b131-5dc44e029b46" x1="5.23" y1="17.45" x2="5.23" y2="8.09" gradientUnits="userSpaceOnUse"><stop offset="0" stop-color="#1988d9" /><stop offset="0.9" stop-color="#54aef0" /></linearGradient><linearGradient id="ic-logWorkspace-e122e9d8-aee5-4f1a-a60e-b1eae355daa5" x1="11.5" y1="12.45" x2="11.5" y2="0.55" gradientUnits="userSpaceOnUse"><stop offset="0" stop-color="#198ab3" /><stop offset="0.01" stop-color="#198bb4" /><stop offset="0.44" stop-color="#27b2d7" /><stop offset="0.79" stop-color="#2fcbed" /><stop offset="1" stop-color="#32d4f5" /></linearGradient></defs><title>Icon-manage-307</title><path d="M5.59,13.13H9.91v4.32H5.59ZM1.15,17.45H4.87V13.13H.55v3.72A.6.6,0,0,0,1.15,17.45Zm-.6-5H4.87V8.09H.55Z" fill="url(#ic-logWorkspace-a997e203-1d7d-4cb9-b131-5dc44e029b46)" /><path d="M11.5.55a5.89,5.89,0,0,1,5.95,6,5.89,5.89,0,0,1-5.95,5.95H5.55V6.5A5.89,5.89,0,0,1,11.5.55Z" fill-rule="evenodd" fill="url(#ic-logWorkspace-e122e9d8-aee5-4f1a-a60e-b1eae355daa5)" /><rect x="7.59" y="5.65" width="1.36" height="4.08" fill="#fff" /><rect x="10.31" y="7.01" width="1.36" height="2.72" fill="#fff" /><rect x="13.03" y="4.29" width="1.36" height="5.44" fill="#fff" /></svg>
<text x="1040.0" y="80.0" font-family="'Segoe UI', 'Helvetica Neue', Arial, sans-serif" font-size="10" fill="#212121" text-anchor="middle" font-weight="500" textLength="124.0" lengthAdjust="spacingAndGlyphs">log-lab-handson-jpe-${suffix}</text>
<text x="1040.0" y="92.0" font-family="'Segoe UI', 'Helvetica Neue', Arial, sans-serif" font-size="9" fill="#212121" text-anchor="middle">workspaces</text>
<rect x="1132.0" y="43.0" width="140.0" height="60.0" rx="8" fill="#00000018"/>
<rect x="1130.0" y="40.0" width="140.0" height="60.0" rx="8" fill="#FFFFFF" stroke="#CBD5E1" stroke-width="1"/>
<svg x="1188.0" y="46.0" width="24" height="24" viewBox="0 0 18 18" preserveAspectRatio="xMidYMid meet"><defs><linearGradient id="ic-rsv-f1a30f9e-7f48-44e2-9483-6a6db8928977" x1="11.13" y1="10.95" x2="11.13" y2="1.21" gradientUnits="userSpaceOnUse"><stop offset="0" stop-color="#0078d4" /><stop offset="0.16" stop-color="#1380da" /><stop offset="0.53" stop-color="#3c91e5" /><stop offset="0.82" stop-color="#559cec" /><stop offset="1" stop-color="#5ea0ef" /></linearGradient><linearGradient id="ic-rsv-b4a5ed8d-a28d-4d26-9aad-a57e6ad0c0b9" x1="7.06" y1="16.79" x2="7.06" y2="6.78" gradientUnits="userSpaceOnUse"><stop offset="0" stop-color="#198ab3" /><stop offset="0.13" stop-color="#21a0c7" /><stop offset="0.31" stop-color="#28b7db" /><stop offset="0.5" stop-color="#2ec7ea" /><stop offset="0.72" stop-color="#31d1f2" /><stop offset="1" stop-color="#32d4f5" /></linearGradient></defs><title>Icon-manage-315</title><path d="M18,7.9a3.09,3.09,0,0,0-2.68-3,3.89,3.89,0,0,0-4-3.72A4,4,0,0,0,7.5,3.81,3.68,3.68,0,0,0,4.26,7.36,3.74,3.74,0,0,0,8.13,11l.34,0h6.26l.17,0A3.13,3.13,0,0,0,18,7.9Z" fill="url(#ic-rsv-f1a30f9e-7f48-44e2-9483-6a6db8928977)" /><path d="M14.39,5.22,12.56,3.44c-.2-.2-.37-.13-.37.18v.8a.22.22,0,0,1-.23.22c-1.18,0-4.47.31-4.59,4.81a.23.23,0,0,0,.23.23H8.77A.23.23,0,0,0,9,9.43,2.76,2.76,0,0,1,12,6.1a.23.23,0,0,1,.23.23v.74c0,.37.12.43.37.18L14.39,5.6A.23.23,0,0,0,14.39,5.22Z" fill="#fff" /><path d="M14.12,13.66a3.17,3.17,0,0,0-2.75-3.05A4,4,0,0,0,7.25,6.78,4.1,4.1,0,0,0,3.33,9.46,3.78,3.78,0,0,0,0,13.1a3.84,3.84,0,0,0,4,3.69h6.78a.47.47,0,0,0,.17,0A3.21,3.21,0,0,0,14.12,13.66Z" fill="url(#ic-rsv-b4a5ed8d-a28d-4d26-9aad-a57e6ad0c0b9)" /></svg>
<text x="1200.0" y="80.0" font-family="'Segoe UI', 'Helvetica Neue', Arial, sans-serif" font-size="10" fill="#212121" text-anchor="middle" font-weight="500" textLength="124.0" lengthAdjust="spacingAndGlyphs">rsv-lab-handson-jpe-${suffix}</text>
<text x="1200.0" y="92.0" font-family="'Segoe UI', 'Helvetica Neue', Arial, sans-serif" font-size="9" fill="#212121" text-anchor="middle">vaults</text>
<line x1="394.0" y1="167.0" x2="404.0" y2="121.0" stroke="#64748B" stroke-width="1.5"/>
<line x1="394.0" y1="167.0" x2="404.0" y2="213.0" stroke="#64748B" stroke-width="1.5"/>
</svg>
