<?xml version="1.0" encoding="UTF-8"?>
<svg xmlns="http://www.w3.org/2000/svg" width="942" height="544" viewBox="0 0 942 544">
<defs>
  <marker id="arrow" markerWidth="10" markerHeight="7" refX="9" refY="3.5" orient="auto">
    <polygon points="0 0, 10 3.5, 0 7" fill="#334155"/>
  </marker>
  <filter id="shadow" x="-5%" y="-5%" width="110%" height="110%">
    <feDropShadow dx="1" dy="2" stdDeviation="3" flood-color="#00000020"/>
  </filter>
</defs>
<rect width="942" height="544" fill="#F8FAFC"/>
<path d="M 196.0,232.0 H 216.0 V 157.0 H 236.0" fill="none" stroke="#1565C0" stroke-width="1.5"/>
<rect x="197.0" y="188.5" width="38" height="12" rx="2" fill="#E3EFF9" opacity="0.85"/>
<text x="216.0" y="198.5" font-family="'Segoe UI', 'Helvetica Neue', Arial, sans-serif" font-size="9" fill="#1565C0" font-style="italic" text-anchor="middle">Peering</text>
<rect x="20.0" y="20.0" width="176.0" height="424.0" rx="8" fill="#E3EFF9" stroke="#1565C0" stroke-width="1.5"/>
<text x="32.0" y="38.0" font-family="'Segoe UI', 'Helvetica Neue', Arial, sans-serif" font-size="11" fill="#1565C0" font-weight="600">VNet: vnet-hub-jpe-${suffix}</text>
<rect x="30.0" y="50.0" width="156.0" height="120.0" rx="6" fill="#F0F6FF" stroke="#0078D4" stroke-width="1" stroke-dasharray="5,3"/>
<text x="38.0" y="64.0" font-family="'Segoe UI', 'Helvetica Neue', Arial, sans-serif" font-size="10" fill="#0078D4">Subnet:AzureFirewallSubnet</text>
<text x="38.0" y="76.0" font-family="'Segoe UI', 'Helvetica Neue', Arial, sans-serif" font-size="9" fill="#0078D4">10.0.1.0/26</text>
<rect x="40.0" y="83.0" width="140.0" height="82.0" rx="8" fill="#00000018"/>
<rect x="38.0" y="80.0" width="140.0" height="82.0" rx="8" fill="#FFFFFF" stroke="#CBD5E1" stroke-width="1"/>
<svg x="96.0" y="86.0" width="24" height="24" viewBox="0 0 18 18" preserveAspectRatio="xMidYMid meet"><defs><linearGradient id="ic-azFirewall-b012de7b-7a0e-4618-9fec-703622e3e8c3" x1="9" y1="14.14" x2="9" y2="1.38" gradientUnits="userSpaceOnUse"><stop offset="0" stop-color="#0078d4" /><stop offset="0.82" stop-color="#5ea0ef" /></linearGradient></defs><title>Icon-networking-84</title><path d="M18,10.14a4.06,4.06,0,0,0-3.51-3.89A5.1,5.1,0,0,0,9.24,1.38a5.23,5.23,0,0,0-5,3.41A4.82,4.82,0,0,0,0,9.43a4.9,4.9,0,0,0,5.07,4.71l.44,0h8.21a1.46,1.46,0,0,0,.22,0A4.1,4.1,0,0,0,18,10.14Z" fill="url(#ic-azFirewall-b012de7b-7a0e-4618-9fec-703622e3e8c3)" /><path d="M14.29,11.19a.42.42,0,0,0-.42-.41H4.13a.42.42,0,0,0-.42.41v5a.42.42,0,0,0,.42.41h9.74a.42.42,0,0,0,.42-.41v-5Z" fill="#821010" /><rect x="4.3" y="11.36" width="2.87" height="1.27" fill="#e62323" /><rect x="7.6" y="11.36" width="2.87" height="1.27" fill="#ff7381" /><rect x="10.9" y="11.36" width="2.87" height="1.27" fill="#e62323" /><rect x="4.3" y="13.06" width="1.19" height="1.27" fill="#e62323" /><rect x="12.58" y="13.06" width="1.19" height="1.27" fill="#ff7381" /><rect x="5.92" y="13.06" width="2.87" height="1.27" fill="#ff7381" /><rect x="9.23" y="13.06" width="2.87" height="1.27" fill="#e62323" /><rect x="4.3" y="14.76" width="2.87" height="1.27" fill="#e62323" /><rect x="7.6" y="14.76" width="2.87" height="1.27" fill="#ff7381" /><rect x="10.9" y="14.76" width="2.87" height="1.27" fill="#e62323" /></svg>
<text x="108.0" y="120.0" font-family="'Segoe UI', 'Helvetica Neue', Arial, sans-serif" font-size="10" fill="#212121" text-anchor="middle" font-weight="500">afw-hub-jpe-${suffix}</text>
<text x="108.0" y="132.0" font-family="'Segoe UI', 'Helvetica Neue', Arial, sans-serif" font-size="9" fill="#212121" text-anchor="middle">azureFirewalls</text>
<line x1="46.0" y1="140.0" x2="170.0" y2="140.0" stroke="#CBD5E1" stroke-width="0.5" stroke-dasharray="3,2"/>
<svg x="44.0" y="143.0" width="14" height="14" viewBox="0 0 18 18" preserveAspectRatio="xMidYMid meet"><defs><linearGradient id="ic-afwPip-ad52e31e-75de-46af-9bdc-bea038ab4209" x1="9" y1="15.83" x2="9" y2="5.79" gradientUnits="userSpaceOnUse"><stop offset="0" stop-color="#32bedd" /><stop offset="0.18" stop-color="#32caea" /><stop offset="0.41" stop-color="#32d2f2" /><stop offset="0.78" stop-color="#32d4f5" /></linearGradient></defs><title>Icon-networking-69</title><path d="M.5,5.79h17a0,0,0,0,1,0,0v9.48a.57.57,0,0,1-.57.57H1.07a.57.57,0,0,1-.57-.57V5.79A0,0,0,0,1,.5,5.79Z" fill="url(#ic-afwPip-ad52e31e-75de-46af-9bdc-bea038ab4209)" /><path d="M1.07,2.17H16.93a.57.57,0,0,1,.57.57V5.79a0,0,0,0,1,0,0H.5a0,0,0,0,1,0,0V2.73A.57.57,0,0,1,1.07,2.17Z" fill="#767676" /><circle cx="12.82" cy="10.19" r="1.38" fill="#f2f2f2" /><circle cx="9.06" cy="10.19" r="1.38" fill="#f2f2f2" /><circle cx="5.18" cy="10.19" r="1.38" fill="#f2f2f2" /><rect x="2.79" y="3.25" width="12.43" height="1.46" rx="0.28" fill="#f2f2f2" /></svg>
<text x="61.0" y="155.0" font-family="'Segoe UI', 'Helvetica Neue', Arial, sans-serif" font-size="8" fill="#212121">pip-afw-jpe-${suffix}</text>
<rect x="30.0" y="182.0" width="156.0" height="120.0" rx="6" fill="#F0F6FF" stroke="#0078D4" stroke-width="1" stroke-dasharray="5,3"/>
<text x="38.0" y="196.0" font-family="'Segoe UI', 'Helvetica Neue', Arial, sans-serif" font-size="10" fill="#0078D4">Subnet:AzureFirewallManage…</text>
<text x="38.0" y="208.0" font-family="'Segoe UI', 'Helvetica Neue', Arial, sans-serif" font-size="9" fill="#0078D4">10.0.1.64/26</text>
<rect x="40.0" y="215.0" width="140.0" height="82.0" rx="8" fill="#00000018"/>
<rect x="38.0" y="212.0" width="140.0" height="82.0" rx="8" fill="#FFFFFF" stroke="#CBD5E1" stroke-width="1"/>
<text x="108.0" y="234.0" font-family="'Segoe UI', 'Helvetica Neue', Arial, sans-serif" font-size="10" fill="#212121" text-anchor="middle" font-weight="500">afw-hub-jpe-${suffix}</text>
<text x="108.0" y="246.0" font-family="'Segoe UI', 'Helvetica Neue', Arial, sans-serif" font-size="9" fill="#212121" text-anchor="middle">azureFirewalls</text>
<line x1="46.0" y1="272.0" x2="170.0" y2="272.0" stroke="#CBD5E1" stroke-width="0.5" stroke-dasharray="3,2"/>
<svg x="44.0" y="275.0" width="14" height="14" viewBox="0 0 18 18" preserveAspectRatio="xMidYMid meet"><defs><linearGradient id="ic-afwMgmtPip-ad52e31e-75de-46af-9bdc-bea038ab4209" x1="9" y1="15.83" x2="9" y2="5.79" gradientUnits="userSpaceOnUse"><stop offset="0" stop-color="#32bedd" /><stop offset="0.18" stop-color="#32caea" /><stop offset="0.41" stop-color="#32d2f2" /><stop offset="0.78" stop-color="#32d4f5" /></linearGradient></defs><title>Icon-networking-69</title><path d="M.5,5.79h17a0,0,0,0,1,0,0v9.48a.57.57,0,0,1-.57.57H1.07a.57.57,0,0,1-.57-.57V5.79A0,0,0,0,1,.5,5.79Z" fill="url(#ic-afwMgmtPip-ad52e31e-75de-46af-9bdc-bea038ab4209)" /><path d="M1.07,2.17H16.93a.57.57,0,0,1,.57.57V5.79a0,0,0,0,1,0,0H.5a0,0,0,0,1,0,0V2.73A.57.57,0,0,1,1.07,2.17Z" fill="#767676" /><circle cx="12.82" cy="10.19" r="1.38" fill="#f2f2f2" /><circle cx="9.06" cy="10.19" r="1.38" fill="#f2f2f2" /><circle cx="5.18" cy="10.19" r="1.38" fill="#f2f2f2" /><rect x="2.79" y="3.25" width="12.43" height="1.46" rx="0.28" fill="#f2f2f2" /></svg>
<text x="61.0" y="287.0" font-family="'Segoe UI', 'Helvetica Neue', Arial, sans-serif" font-size="8" fill="#212121" textLength="109.0" lengthAdjust="spacingAndGlyphs">pip-afw-mgmt-jpe-${suffix}</text>
<rect x="30.0" y="314.0" width="156.0" height="120.0" rx="6" fill="#F0F6FF" stroke="#0078D4" stroke-width="1" stroke-dasharray="5,3"/>
<text x="38.0" y="328.0" font-family="'Segoe UI', 'Helvetica Neue', Arial, sans-serif" font-size="10" fill="#0078D4">Subnet:snet-mgmt-jpe</text>
<text x="38.0" y="340.0" font-family="'Segoe UI', 'Helvetica Neue', Arial, sans-serif" font-size="9" fill="#0078D4">10.0.2.0/24</text>
<rect x="40.0" y="347.0" width="140.0" height="82.0" rx="8" fill="#00000018"/>
<rect x="38.0" y="344.0" width="140.0" height="82.0" rx="8" fill="#FFFFFF" stroke="#CBD5E1" stroke-width="1"/>
<svg x="96.0" y="350.0" width="24" height="24" viewBox="0 0 18 18" preserveAspectRatio="xMidYMid meet"><defs><linearGradient id="ic-vmMgmt-f34d9569-2bd0-4002-8f16-3d01d8106cb5" x1="8.88" y1="12.21" x2="8.88" y2="0.21" gradientUnits="userSpaceOnUse"><stop offset="0" stop-color="#0078d4" /><stop offset="0.82" stop-color="#5ea0ef" /></linearGradient><linearGradient id="ic-vmMgmt-bdb45a0b-eb58-4970-a60a-fb2ce314f866" x1="8.88" y1="16.84" x2="8.88" y2="12.21" gradientUnits="userSpaceOnUse"><stop offset="0.15" stop-color="#ccc" /><stop offset="1" stop-color="#707070" /></linearGradient></defs><title>Icon-compute-21</title><rect x="-0.12" y="0.21" width="18" height="12" rx="0.6" fill="url(#ic-vmMgmt-f34d9569-2bd0-4002-8f16-3d01d8106cb5)" /><polygon points="11.88 4.46 11.88 7.95 8.88 9.71 8.88 6.21 11.88 4.46" fill="#50e6ff" /><polygon points="11.88 4.46 8.88 6.22 5.88 4.46 8.88 2.71 11.88 4.46" fill="#c3f1ff" /><polygon points="8.88 6.22 8.88 9.71 5.88 7.95 5.88 4.46 8.88 6.22" fill="#9cebff" /><polygon points="5.88 7.95 8.88 6.21 8.88 9.71 5.88 7.95" fill="#c3f1ff" /><polygon points="11.88 7.95 8.88 6.21 8.88 9.71 11.88 7.95" fill="#9cebff" /><path d="M12.49,15.84c-1.78-.28-1.85-1.56-1.85-3.63H7.11c0,2.07-.06,3.35-1.84,3.63a1,1,0,0,0-.89,1h9A1,1,0,0,0,12.49,15.84Z" fill="url(#ic-vmMgmt-bdb45a0b-eb58-4970-a60a-fb2ce314f866)" /></svg>
<text x="108.0" y="384.0" font-family="'Segoe UI', 'Helvetica Neue', Arial, sans-serif" font-size="10" fill="#212121" text-anchor="middle" font-weight="500">vm-mgmt-jpe-${suffix}</text>
<text x="108.0" y="396.0" font-family="'Segoe UI', 'Helvetica Neue', Arial, sans-serif" font-size="9" fill="#212121" text-anchor="middle">virtualMachines</text>
<line x1="46.0" y1="404.0" x2="170.0" y2="404.0" stroke="#CBD5E1" stroke-width="0.5" stroke-dasharray="3,2"/>
<svg x="44.0" y="407.0" width="14" height="14" viewBox="0 0 18 18" preserveAspectRatio="xMidYMid meet"><defs><linearGradient id="ic-nicMgmt-fcad3287-b71c-44fa-971a-6a18bcf384a0" x1="9.01" y1="16.5" x2="9.01" y2="1.5" gradientUnits="userSpaceOnUse"><stop offset="0" stop-color="#5e9641" /><stop offset="0.34" stop-color="#6baa42" /><stop offset="0.67" stop-color="#73b743" /><stop offset="1" stop-color="#76bb43" /></linearGradient></defs><title>Icon-networking-80</title><path d="M15.89,2.91h1.27a.34.34,0,0,1,.34.34v3.5a.34.34,0,0,1-.34.34H15.89a0,0,0,0,1,0,0V2.91A0,0,0,0,1,15.89,2.91Z" fill="#ffca00" /><path d="M15.89,9h1.27a.34.34,0,0,1,.34.34v5.86a.34.34,0,0,1-.34.34H15.89a0,0,0,0,1,0,0V9A0,0,0,0,1,15.89,9Z" fill="#ffca00" /><rect x="2.13" y="1.5" width="13.76" height="15" rx="0.69" fill="url(#ic-nicMgmt-fcad3287-b71c-44fa-971a-6a18bcf384a0)" /><path d="M5.9,12.9H5.19A.2.2,0,0,1,5,12.69V4.34a.19.19,0,0,1,.19-.2H7.12a.19.19,0,0,1,.19.2.2.2,0,0,1-.19.21H5.38v7.93H5.9a.2.2,0,0,1,.19.21A.21.21,0,0,1,5.9,12.9Z" fill="#b4ec36" /><path d="M6,13.92H4.4a.2.2,0,0,1-.19-.21L4.08,3.38a.2.2,0,0,1,.06-.15.16.16,0,0,1,.13-.06H7.12v.41H4.47l.12,9.92H6Z" fill="#b4ec36" /><path d="M12,13H10.41a.19.19,0,0,1-.14-.07.18.18,0,0,1-.06-.14V7.9a.19.19,0,0,1,.19-.2l.91,0,0-2.25h.38l0,2.44a.2.2,0,0,1-.18.21l-.91,0v4.42H12Z" fill="#b4ec36" /><rect x="7.07" y="2.29" width="6.14" height="3.11" rx="0.26" fill="#365615" /><rect x="5.86" y="12.69" width="4.9" height="1.09" rx="0.26" transform="translate(21.54 4.93) rotate(90)" fill="#365615" /><rect x="3.99" y="12.71" width="4.9" height="1.09" rx="0.26" transform="translate(19.7 6.82) rotate(90)" fill="#365615" /><rect x="9.98" y="12.71" width="4.9" height="1.09" rx="0.26" transform="translate(25.68 0.83) rotate(90)" fill="#f2f2f2" /><ellipse cx="8.11" cy="8.06" rx="1.04" ry="1.12" fill="#f2f2f2" /><path d="M.5,5.7H1.77A.34.34,0,0,1,2.11,6v5.86a.34.34,0,0,1-.34.34H.5a0,0,0,0,1,0,0V5.7A0,0,0,0,1,.5,5.7Z" transform="translate(2.61 17.95) rotate(180)" fill="#3b3b3b" /></svg>
<text x="61.0" y="419.0" font-family="'Segoe UI', 'Helvetica Neue', Arial, sans-serif" font-size="8" fill="#212121" textLength="109.0" lengthAdjust="spacingAndGlyphs">nic-vm-mgmt-jpe-${suffix}</text>
<rect x="236.0" y="20.0" width="326.0" height="274.0" rx="8" fill="#E3EFF9" stroke="#1565C0" stroke-width="1.5"/>
<text x="248.0" y="38.0" font-family="'Segoe UI', 'Helvetica Neue', Arial, sans-serif" font-size="11" fill="#1565C0" font-weight="600">VNet: vnet-spoke-web-jpe-${suffix}</text>
<rect x="246.0" y="50.0" width="306.0" height="234.0" rx="6" fill="#F0F6FF" stroke="#0078D4" stroke-width="1" stroke-dasharray="5,3"/>
<text x="254.0" y="64.0" font-family="'Segoe UI', 'Helvetica Neue', Arial, sans-serif" font-size="10" fill="#0078D4">Subnet:snet-web-jpe</text>
<text x="254.0" y="76.0" font-family="'Segoe UI', 'Helvetica Neue', Arial, sans-serif" font-size="9" fill="#0078D4">10.1.1.0/24</text>
<rect x="256.0" y="140.0" width="140.0" height="60.0" rx="8" fill="#00000018"/>
<rect x="254.0" y="137.0" width="140.0" height="60.0" rx="8" fill="#FFFFFF" stroke="#CBD5E1" stroke-width="1"/>
<svg x="312.0" y="143.0" width="24" height="24" viewBox="0 0 18 18" preserveAspectRatio="xMidYMid meet"><defs><linearGradient id="ic-lb-ef84663a-a7b6-46a7-a275-1e419f5eae62" x1="9" y1="19.85" x2="9" y2="-1.02" gradientUnits="userSpaceOnUse"><stop offset="0" stop-color="#5e9624" /><stop offset="0.02" stop-color="#5f9724" /><stop offset="1" stop-color="#76bc2d" /></linearGradient></defs><title>Icon-networking-62</title><path d="M.18,8.57,8.57.18a.6.6,0,0,1,.86,0l8.39,8.39a.6.6,0,0,1,0,.86l-8.4,8.4a.6.6,0,0,1-.84,0L.18,9.43A.6.6,0,0,1,.18,8.57Z" fill="url(#ic-lb-ef84663a-a7b6-46a7-a275-1e419f5eae62)" /><path d="M11.2,4,9.08,1.89a.12.12,0,0,0-.16,0L6.8,4a.1.1,0,0,0,.08.18H8.12a.11.11,0,0,1,.11.11v2a.11.11,0,0,0,.11.11H9.66a.11.11,0,0,0,.11-.11v-2a.11.11,0,0,1,.11-.11h1.24A.1.1,0,0,0,11.2,4Z" fill="#b4ec36" /><path d="M4,6.61,1.9,8.74a.11.11,0,0,0,0,.15L4,11a.11.11,0,0,0,.19-.08V9.69a.11.11,0,0,1,.11-.11h2a.1.1,0,0,0,.1-.11V8.15A.1.1,0,0,0,6.33,8h-2a.1.1,0,0,1-.11-.1V6.69A.11.11,0,0,0,4,6.61Z" fill="#b4ec36" /><path d="M14.08,11l2.13-2.12a.11.11,0,0,0,0-.15L14.08,6.61a.11.11,0,0,0-.18.08V7.94a.1.1,0,0,1-.11.1h-2a.1.1,0,0,0-.1.11V9.47a.1.1,0,0,0,.1.11h2a.11.11,0,0,1,.11.11v1.24A.11.11,0,0,0,14.08,11Z" fill="#b4ec36" /><path d="M11.79,9a2.79,2.79,0,1,0-3.54,2.67v.95a1.71,1.71,0,1,0,1.57,0v-1A2.77,2.77,0,0,0,11.79,9Z" fill="#fff" /><circle id="ic-lb-e99c3387-15c3-4f28-bd4b-cb209b430e06" cx="9.01" cy="8.99" r="1.62" fill="#5ea0ef" /></svg>
<text x="324.0" y="177.0" font-family="'Segoe UI', 'Helvetica Neue', Arial, sans-serif" font-size="10" fill="#212121" text-anchor="middle" font-weight="500">lbi-web-jpe-${suffix}</text>
<text x="324.0" y="189.0" font-family="'Segoe UI', 'Helvetica Neue', Arial, sans-serif" font-size="9" fill="#212121" text-anchor="middle">loadBalancers</text>
<rect x="406.0" y="83.0" width="140.0" height="82.0" rx="8" fill="#00000018"/>
<rect x="404.0" y="80.0" width="140.0" height="82.0" rx="8" fill="#FFFFFF" stroke="#CBD5E1" stroke-width="1"/>
<svg x="462.0" y="86.0" width="24" height="24" viewBox="0 0 18 18" preserveAspectRatio="xMidYMid meet"><defs><linearGradient id="ic-vmWeb01-f34d9569-2bd0-4002-8f16-3d01d8106cb5" x1="8.88" y1="12.21" x2="8.88" y2="0.21" gradientUnits="userSpaceOnUse"><stop offset="0" stop-color="#0078d4" /><stop offset="0.82" stop-color="#5ea0ef" /></linearGradient><linearGradient id="ic-vmWeb01-bdb45a0b-eb58-4970-a60a-fb2ce314f866" x1="8.88" y1="16.84" x2="8.88" y2="12.21" gradientUnits="userSpaceOnUse"><stop offset="0.15" stop-color="#ccc" /><stop offset="1" stop-color="#707070" /></linearGradient></defs><title>Icon-compute-21</title><rect x="-0.12" y="0.21" width="18" height="12" rx="0.6" fill="url(#ic-vmWeb01-f34d9569-2bd0-4002-8f16-3d01d8106cb5)" /><polygon points="11.88 4.46 11.88 7.95 8.88 9.71 8.88 6.21 11.88 4.46" fill="#50e6ff" /><polygon points="11.88 4.46 8.88 6.22 5.88 4.46 8.88 2.71 11.88 4.46" fill="#c3f1ff" /><polygon points="8.88 6.22 8.88 9.71 5.88 7.95 5.88 4.46 8.88 6.22" fill="#9cebff" /><polygon points="5.88 7.95 8.88 6.21 8.88 9.71 5.88 7.95" fill="#c3f1ff" /><polygon points="11.88 7.95 8.88 6.21 8.88 9.71 11.88 7.95" fill="#9cebff" /><path d="M12.49,15.84c-1.78-.28-1.85-1.56-1.85-3.63H7.11c0,2.07-.06,3.35-1.84,3.63a1,1,0,0,0-.89,1h9A1,1,0,0,0,12.49,15.84Z" fill="url(#ic-vmWeb01-bdb45a0b-eb58-4970-a60a-fb2ce314f866)" /></svg>
<text x="474.0" y="120.0" font-family="'Segoe UI', 'Helvetica Neue', Arial, sans-serif" font-size="10" fill="#212121" text-anchor="middle" font-weight="500" textLength="124.0" lengthAdjust="spacingAndGlyphs">vm-web-01-jpe-${suffix}</text>
<text x="474.0" y="132.0" font-family="'Segoe UI', 'Helvetica Neue', Arial, sans-serif" font-size="9" fill="#212121" text-anchor="middle">virtualMachines</text>
<line x1="412.0" y1="140.0" x2="536.0" y2="140.0" stroke="#CBD5E1" stroke-width="0.5" stroke-dasharray="3,2"/>
<svg x="410.0" y="143.0" width="14" height="14" viewBox="0 0 18 18" preserveAspectRatio="xMidYMid meet"><defs><linearGradient id="ic-nic01-fcad3287-b71c-44fa-971a-6a18bcf384a0" x1="9.01" y1="16.5" x2="9.01" y2="1.5" gradientUnits="userSpaceOnUse"><stop offset="0" stop-color="#5e9641" /><stop offset="0.34" stop-color="#6baa42" /><stop offset="0.67" stop-color="#73b743" /><stop offset="1" stop-color="#76bb43" /></linearGradient></defs><title>Icon-networking-80</title><path d="M15.89,2.91h1.27a.34.34,0,0,1,.34.34v3.5a.34.34,0,0,1-.34.34H15.89a0,0,0,0,1,0,0V2.91A0,0,0,0,1,15.89,2.91Z" fill="#ffca00" /><path d="M15.89,9h1.27a.34.34,0,0,1,.34.34v5.86a.34.34,0,0,1-.34.34H15.89a0,0,0,0,1,0,0V9A0,0,0,0,1,15.89,9Z" fill="#ffca00" /><rect x="2.13" y="1.5" width="13.76" height="15" rx="0.69" fill="url(#ic-nic01-fcad3287-b71c-44fa-971a-6a18bcf384a0)" /><path d="M5.9,12.9H5.19A.2.2,0,0,1,5,12.69V4.34a.19.19,0,0,1,.19-.2H7.12a.19.19,0,0,1,.19.2.2.2,0,0,1-.19.21H5.38v7.93H5.9a.2.2,0,0,1,.19.21A.21.21,0,0,1,5.9,12.9Z" fill="#b4ec36" /><path d="M6,13.92H4.4a.2.2,0,0,1-.19-.21L4.08,3.38a.2.2,0,0,1,.06-.15.16.16,0,0,1,.13-.06H7.12v.41H4.47l.12,9.92H6Z" fill="#b4ec36" /><path d="M12,13H10.41a.19.19,0,0,1-.14-.07.18.18,0,0,1-.06-.14V7.9a.19.19,0,0,1,.19-.2l.91,0,0-2.25h.38l0,2.44a.2.2,0,0,1-.18.21l-.91,0v4.42H12Z" fill="#b4ec36" /><rect x="7.07" y="2.29" width="6.14" height="3.11" rx="0.26" fill="#365615" /><rect x="5.86" y="12.69" width="4.9" height="1.09" rx="0.26" transform="translate(21.54 4.93) rotate(90)" fill="#365615" /><rect x="3.99" y="12.71" width="4.9" height="1.09" rx="0.26" transform="translate(19.7 6.82) rotate(90)" fill="#365615" /><rect x="9.98" y="12.71" width="4.9" height="1.09" rx="0.26" transform="translate(25.68 0.83) rotate(90)" fill="#f2f2f2" /><ellipse cx="8.11" cy="8.06" rx="1.04" ry="1.12" fill="#f2f2f2" /><path d="M.5,5.7H1.77A.34.34,0,0,1,2.11,6v5.86a.34.34,0,0,1-.34.34H.5a0,0,0,0,1,0,0V5.7A0,0,0,0,1,.5,5.7Z" transform="translate(2.61 17.95) rotate(180)" fill="#3b3b3b" /></svg>
<text x="427.0" y="155.0" font-family="'Segoe UI', 'Helvetica Neue', Arial, sans-serif" font-size="8" fill="#212121">nic-vm-web-01-jpe</text>
<rect x="406.0" y="175.0" width="140.0" height="82.0" rx="8" fill="#00000018"/>
<rect x="404.0" y="172.0" width="140.0" height="82.0" rx="8" fill="#FFFFFF" stroke="#CBD5E1" stroke-width="1"/>
<svg x="462.0" y="178.0" width="24" height="24" viewBox="0 0 18 18" preserveAspectRatio="xMidYMid meet"><defs><linearGradient id="ic-vmWeb02-f34d9569-2bd0-4002-8f16-3d01d8106cb5" x1="8.88" y1="12.21" x2="8.88" y2="0.21" gradientUnits="userSpaceOnUse"><stop offset="0" stop-color="#0078d4" /><stop offset="0.82" stop-color="#5ea0ef" /></linearGradient><linearGradient id="ic-vmWeb02-bdb45a0b-eb58-4970-a60a-fb2ce314f866" x1="8.88" y1="16.84" x2="8.88" y2="12.21" gradientUnits="userSpaceOnUse"><stop offset="0.15" stop-color="#ccc" /><stop offset="1" stop-color="#707070" /></linearGradient></defs><title>Icon-compute-21</title><rect x="-0.12" y="0.21" width="18" height="12" rx="0.6" fill="url(#ic-vmWeb02-f34d9569-2bd0-4002-8f16-3d01d8106cb5)" /><polygon points="11.88 4.46 11.88 7.95 8.88 9.71 8.88 6.21 11.88 4.46" fill="#50e6ff" /><polygon points="11.88 4.46 8.88 6.22 5.88 4.46 8.88 2.71 11.88 4.46" fill="#c3f1ff" /><polygon points="8.88 6.22 8.88 9.71 5.88 7.95 5.88 4.46 8.88 6.22" fill="#9cebff" /><polygon points="5.88 7.95 8.88 6.21 8.88 9.71 5.88 7.95" fill="#c3f1ff" /><polygon points="11.88 7.95 8.88 6.21 8.88 9.71 11.88 7.95" fill="#9cebff" /><path d="M12.49,15.84c-1.78-.28-1.85-1.56-1.85-3.63H7.11c0,2.07-.06,3.35-1.84,3.63a1,1,0,0,0-.89,1h9A1,1,0,0,0,12.49,15.84Z" fill="url(#ic-vmWeb02-bdb45a0b-eb58-4970-a60a-fb2ce314f866)" /></svg>
<text x="474.0" y="212.0" font-family="'Segoe UI', 'Helvetica Neue', Arial, sans-serif" font-size="10" fill="#212121" text-anchor="middle" font-weight="500" textLength="124.0" lengthAdjust="spacingAndGlyphs">vm-web-02-jpe-${suffix}</text>
<text x="474.0" y="224.0" font-family="'Segoe UI', 'Helvetica Neue', Arial, sans-serif" font-size="9" fill="#212121" text-anchor="middle">virtualMachines</text>
<line x1="412.0" y1="232.0" x2="536.0" y2="232.0" stroke="#CBD5E1" stroke-width="0.5" stroke-dasharray="3,2"/>
<svg x="410.0" y="235.0" width="14" height="14" viewBox="0 0 18 18" preserveAspectRatio="xMidYMid meet"><defs><linearGradient id="ic-nic02-fcad3287-b71c-44fa-971a-6a18bcf384a0" x1="9.01" y1="16.5" x2="9.01" y2="1.5" gradientUnits="userSpaceOnUse"><stop offset="0" stop-color="#5e9641" /><stop offset="0.34" stop-color="#6baa42" /><stop offset="0.67" stop-color="#73b743" /><stop offset="1" stop-color="#76bb43" /></linearGradient></defs><title>Icon-networking-80</title><path d="M15.89,2.91h1.27a.34.34,0,0,1,.34.34v3.5a.34.34,0,0,1-.34.34H15.89a0,0,0,0,1,0,0V2.91A0,0,0,0,1,15.89,2.91Z" fill="#ffca00" /><path d="M15.89,9h1.27a.34.34,0,0,1,.34.34v5.86a.34.34,0,0,1-.34.34H15.89a0,0,0,0,1,0,0V9A0,0,0,0,1,15.89,9Z" fill="#ffca00" /><rect x="2.13" y="1.5" width="13.76" height="15" rx="0.69" fill="url(#ic-nic02-fcad3287-b71c-44fa-971a-6a18bcf384a0)" /><path d="M5.9,12.9H5.19A.2.2,0,0,1,5,12.69V4.34a.19.19,0,0,1,.19-.2H7.12a.19.19,0,0,1,.19.2.2.2,0,0,1-.19.21H5.38v7.93H5.9a.2.2,0,0,1,.19.21A.21.21,0,0,1,5.9,12.9Z" fill="#b4ec36" /><path d="M6,13.92H4.4a.2.2,0,0,1-.19-.21L4.08,3.38a.2.2,0,0,1,.06-.15.16.16,0,0,1,.13-.06H7.12v.41H4.47l.12,9.92H6Z" fill="#b4ec36" /><path d="M12,13H10.41a.19.19,0,0,1-.14-.07.18.18,0,0,1-.06-.14V7.9a.19.19,0,0,1,.19-.2l.91,0,0-2.25h.38l0,2.44a.2.2,0,0,1-.18.21l-.91,0v4.42H12Z" fill="#b4ec36" /><rect x="7.07" y="2.29" width="6.14" height="3.11" rx="0.26" fill="#365615" /><rect x="5.86" y="12.69" width="4.9" height="1.09" rx="0.26" transform="translate(21.54 4.93) rotate(90)" fill="#365615" /><rect x="3.99" y="12.71" width="4.9" height="1.09" rx="0.26" transform="translate(19.7 6.82) rotate(90)" fill="#365615" /><rect x="9.98" y="12.71" width="4.9" height="1.09" rx="0.26" transform="translate(25.68 0.83) rotate(90)" fill="#f2f2f2" /><ellipse cx="8.11" cy="8.06" rx="1.04" ry="1.12" fill="#f2f2f2" /><path d="M.5,5.7H1.77A.34.34,0,0,1,2.11,6v5.86a.34.34,0,0,1-.34.34H.5a0,0,0,0,1,0,0V5.7A0,0,0,0,1,.5,5.7Z" transform="translate(2.61 17.95) rotate(180)" fill="#3b3b3b" /></svg>
<text x="427.0" y="247.0" font-family="'Segoe UI', 'Helvetica Neue', Arial, sans-serif" font-size="8" fill="#212121">nic-vm-web-02-jpe</text>
<line x1="250.0" y1="262.0" x2="548.0" y2="262.0" stroke="#0078D4" stroke-width="0.5" stroke-dasharray="3,2"/>
<svg x="252.0" y="266.0" width="14" height="14" viewBox="0 0 18 18" preserveAspectRatio="xMidYMid meet"><defs><linearGradient id="ic-routeTable-ec6ad825-6008-44c0-8c46-d31711213827" x1="10.56" y1="7.77" x2="10.56" y2="19.24" gradientUnits="userSpaceOnUse"><stop offset="0.22" stop-color="#32d4f5" /><stop offset="1" stop-color="#198ab3" /></linearGradient><linearGradient id="ic-routeTable-b2c2be9e-0a70-4a83-ab8f-bf8022e67924" x1="10.23" y1="1.63" x2="11.07" y2="12.04" gradientUnits="userSpaceOnUse"><stop offset="0.22" stop-color="#32d4f5" /><stop offset="1" stop-color="#198ab3" /></linearGradient></defs><title>Icon-networking-82</title><path d="M16.23,17.17A1.21,1.21,0,0,0,17.46,16V15.8c-.49-3.86-2.69-7-6.89-7s-6.48,2.66-6.91,7a1.24,1.24,0,0,0,1.1,1.36H16.23Z" fill="url(#ic-routeTable-ec6ad825-6008-44c0-8c46-d31711213827)" /><path d="M10.57,9.71a3.86,3.86,0,0,1-2.1-.61l2.08,5.42,2.06-5.39A3.83,3.83,0,0,1,10.57,9.71Z" fill="#fff" opacity="0.8" /><circle cx="10.57" cy="5.84" r="3.87" fill="url(#ic-routeTable-b2c2be9e-0a70-4a83-ab8f-bf8022e67924)" /><path d="M6,5.88V1A.16.16,0,0,0,5.84.83H4.57A.17.17,0,0,0,4.39,1V5.71a.18.18,0,0,1-.17.17H3.1A.12.12,0,0,1,3,5.76V4.45a.11.11,0,0,0-.19-.08L.59,6.57a.16.16,0,0,0,0,.24L2.79,9A.11.11,0,0,0,3,8.93V7.61A.11.11,0,0,1,3.1,7.5H5.84A.17.17,0,0,0,6,7.33V5.88Z" fill="#0078d4" /></svg>
<text x="269.0" y="278.0" font-family="'Segoe UI', 'Helvetica Neue', Arial, sans-serif" font-size="8" fill="#212121">UDR: rt-spoke-web-jpe-${su…</text>
<line x1="108.0" y1="444.0" x2="108.0" y2="464.0" stroke="#64748B" stroke-width="1.5"/>
<rect x="40.0" y="467.0" width="140.0" height="60.0" rx="8" fill="#00000018"/>
<rect x="38.0" y="464.0" width="140.0" height="60.0" rx="8" fill="#FFFFFF" stroke="#CBD5E1" stroke-width="1"/>
<svg x="96.0" y="470.0" width="24" height="24" viewBox="0 0 18 18" preserveAspectRatio="xMidYMid meet"><defs><linearGradient id="ic-bastion-b1ebad31-96e8-487e-93d6-4a68da28a89e" x1="12.896" y1="-0.54" x2="12.896" y2="6.922" gradientTransform="translate(1.05 10.166) rotate(-44.919)" gradientUnits="userSpaceOnUse"><stop offset="0" stop-color="#5ea0ef" /><stop offset="1" stop-color="#0078d4" /></linearGradient><linearGradient id="ic-bastion-fb6a68a2-e02a-438b-8ccf-ab9786098481" x1="5.104" y1="5.035" x2="5.104" y2="12.497" gradientTransform="translate(2.636 18.68) rotate(-135.081)" gradientUnits="userSpaceOnUse"><stop offset="0" stop-color="#5ea0ef" /><stop offset="1" stop-color="#0078d4" /></linearGradient></defs><path d="M12.315,4.43h1.136a.363.363,0,0,1,.363.363v8.382a.727.727,0,0,1-.727.727H11.951a0,0,0,0,1,0,0V4.793A.363.363,0,0,1,12.315,4.43Z" transform="translate(28.47 6.515) rotate(134.919)" fill="#83b9f9" /><path d="M12.253-.856h1.136a.363.363,0,0,1,.363.363V8.483a0,0,0,0,1,0,0H12.616a.727.727,0,0,1-.727-.727V-.492a.363.363,0,0,1,.363-.363Z" transform="translate(6.435 -7.94) rotate(44.919)" fill="url(#ic-bastion-b1ebad31-96e8-487e-93d6-4a68da28a89e)" /><path d="M4.186,9.411H5.322a.727.727,0,0,1,.727.727v8.382a.363.363,0,0,1-.363.363H4.549a.363.363,0,0,1-.363-.363V9.411a0,0,0,0,1,0,0Z" transform="translate(11.521 0.534) rotate(45.081)" fill="#83b9f9" /><path d="M4.974,4.126H6.11a0,0,0,0,1,0,0V13.1a.363.363,0,0,1-.363.363H4.611a.363.363,0,0,1-.363-.363V4.852a.727.727,0,0,1,.727-.727Z" transform="translate(15.056 11.366) rotate(135.081)" fill="url(#ic-bastion-fb6a68a2-e02a-438b-8ccf-ab9786098481)" /></svg>
<text x="108.0" y="504.0" font-family="'Segoe UI', 'Helvetica Neue', Arial, sans-serif" font-size="10" fill="#212121" text-anchor="middle" font-weight="500">bas-hub-jpe-${suffix}</text>
<text x="108.0" y="516.0" font-family="'Segoe UI', 'Helvetica Neue', Arial, sans-serif" font-size="9" fill="#212121" text-anchor="middle">bastionHosts</text>
<rect x="624.0" y="43.0" width="140.0" height="60.0" rx="8" fill="#00000018"/>
<rect x="622.0" y="40.0" width="140.0" height="60.0" rx="8" fill="#FFFFFF" stroke="#CBD5E1" stroke-width="1"/>
<svg x="680.0" y="46.0" width="24" height="24" viewBox="0 0 18 18" preserveAspectRatio="xMidYMid meet"><defs><linearGradient id="ic-logWorkspace-a997e203-1d7d-4cb9-b131-5dc44e029b46" x1="5.23" y1="17.45" x2="5.23" y2="8.09" gradientUnits="userSpaceOnUse"><stop offset="0" stop-color="#1988d9" /><stop offset="0.9" stop-color="#54aef0" /></linearGradient><linearGradient id="ic-logWorkspace-e122e9d8-aee5-4f1a-a60e-b1eae355daa5" x1="11.5" y1="12.45" x2="11.5" y2="0.55" gradientUnits="userSpaceOnUse"><stop offset="0" stop-color="#198ab3" /><stop offset="0.01" stop-color="#198bb4" /><stop offset="0.44" stop-color="#27b2d7" /><stop offset="0.79" stop-color="#2fcbed" /><stop offset="1" stop-color="#32d4f5" /></linearGradient></defs><title>Icon-manage-307</title><path d="M5.59,13.13H9.91v4.32H5.59ZM1.15,17.45H4.87V13.13H.55v3.72A.6.6,0,0,0,1.15,17.45Zm-.6-5H4.87V8.09H.55Z" fill="url(#ic-logWorkspace-a997e203-1d7d-4cb9-b131-5dc44e029b46)" /><path d="M11.5.55a5.89,5.89,0,0,1,5.95,6,5.89,5.89,0,0,1-5.95,5.95H5.55V6.5A5.89,5.89,0,0,1,11.5.55Z" fill-rule="evenodd" fill="url(#ic-logWorkspace-e122e9d8-aee5-4f1a-a60e-b1eae355daa5)" /><rect x="7.59" y="5.65" width="1.36" height="4.08" fill="#fff" /><rect x="10.31" y="7.01" width="1.36" height="2.72" fill="#fff" /><rect x="13.03" y="4.29" width="1.36" height="5.44" fill="#fff" /></svg>
<text x="692.0" y="80.0" font-family="'Segoe UI', 'Helvetica Neue', Arial, sans-serif" font-size="10" fill="#212121" text-anchor="middle" font-weight="500" textLength="124.0" lengthAdjust="spacingAndGlyphs">log-lab-handson-jpe-${suffix}</text>
<text x="692.0" y="92.0" font-family="'Segoe UI', 'Helvetica Neue', Arial, sans-serif" font-size="9" fill="#212121" text-anchor="middle">workspaces</text>
<rect x="784.0" y="43.0" width="140.0" height="60.0" rx="8" fill="#00000018"/>
<rect x="782.0" y="40.0" width="140.0" height="60.0" rx="8" fill="#FFFFFF" stroke="#CBD5E1" stroke-width="1"/>
<svg x="840.0" y="46.0" width="24" height="24" viewBox="0 0 18 18" preserveAspectRatio="xMidYMid meet"><defs><linearGradient id="ic-rsv-f1a30f9e-7f48-44e2-9483-6a6db8928977" x1="11.13" y1="10.95" x2="11.13" y2="1.21" gradientUnits="userSpaceOnUse"><stop offset="0" stop-color="#0078d4" /><stop offset="0.16" stop-color="#1380da" /><stop offset="0.53" stop-color="#3c91e5" /><stop offset="0.82" stop-color="#559cec" /><stop offset="1" stop-color="#5ea0ef" /></linearGradient><linearGradient id="ic-rsv-b4a5ed8d-a28d-4d26-9aad-a57e6ad0c0b9" x1="7.06" y1="16.79" x2="7.06" y2="6.78" gradientUnits="userSpaceOnUse"><stop offset="0" stop-color="#198ab3" /><stop offset="0.13" stop-color="#21a0c7" /><stop offset="0.31" stop-color="#28b7db" /><stop offset="0.5" stop-color="#2ec7ea" /><stop offset="0.72" stop-color="#31d1f2" /><stop offset="1" stop-color="#32d4f5" /></linearGradient></defs><title>Icon-manage-315</title><path d="M18,7.9a3.09,3.09,0,0,0-2.68-3,3.89,3.89,0,0,0-4-3.72A4,4,0,0,0,7.5,3.81,3.68,3.68,0,0,0,4.26,7.36,3.74,3.74,0,0,0,8.13,11l.34,0h6.26l.17,0A3.13,3.13,0,0,0,18,7.9Z" fill="url(#ic-rsv-f1a30f9e-7f48-44e2-9483-6a6db8928977)" /><path d="M14.39,5.22,12.56,3.44c-.2-.2-.37-.13-.37.18v.8a.22.22,0,0,1-.23.22c-1.18,0-4.47.31-4.59,4.81a.23.23,0,0,0,.23.23H8.77A.23.23,0,0,0,9,9.43,2.76,2.76,0,0,1,12,6.1a.23.23,0,0,1,.23.23v.74c0,.37.12.43.37.18L14.39,5.6A.23.23,0,0,0,14.39,5.22Z" fill="#fff" /><path d="M14.12,13.66a3.17,3.17,0,0,0-2.75-3.05A4,4,0,0,0,7.25,6.78,4.1,4.1,0,0,0,3.33,9.46,3.78,3.78,0,0,0,0,13.1a3.84,3.84,0,0,0,4,3.69h6.78a.47.47,0,0,0,.17,0A3.21,3.21,0,0,0,14.12,13.66Z" fill="url(#ic-rsv-b4a5ed8d-a28d-4d26-9aad-a57e6ad0c0b9)" /></svg>
<text x="852.0" y="80.0" font-family="'Segoe UI', 'Helvetica Neue', Arial, sans-serif" font-size="10" fill="#212121" text-anchor="middle" font-weight="500" textLength="124.0" lengthAdjust="spacingAndGlyphs">rsv-lab-handson-jpe-${suffix}</text>
<text x="852.0" y="92.0" font-family="'Segoe UI', 'Helvetica Neue', Arial, sans-serif" font-size="9" fill="#212121" text-anchor="middle">vaults</text>
<line x1="394.0" y1="167.0" x2="404.0" y2="121.0" stroke="#64748B" stroke-width="1.5"/>
<line x1="394.0" y1="167.0" x2="404.0" y2="213.0" stroke="#64748B" stroke-width="1.5"/>
</svg>
